<?xml version="1.0" standalone="no"?>
 <!DOCTYPE svg PUBLIC "-//W3C//DTD SVG 1.1//EN" 
 "http://www.w3.org/Graphics/SVG/1.1/DTD/svg11.dtd"> 
<svg
  xmlns:svg="http://www.w3.org/2000/svg"
  xmlns="http://www.w3.org/2000/svg"
  xmlns:xlink="http://www.w3.org/1999/xlink"
  version="1.1"
  width="297.0022mm" height="210.0072mm" viewBox="0.0000 0.0000 297.0022 210.0072">
<title>SVG Image created as MiniSlew-F_Silkscreen.svg date 2024/09/09 04:28:58 </title>
  <desc>Image generated by PCBNEW </desc>
<g style="fill:#000000; fill-opacity:1.0000;stroke:#000000; stroke-opacity:1.0000;
stroke-linecap:round; stroke-linejoin:round;"
 transform="translate(0 0) scale(1 1)">
</g>
<g style="fill:none; 
stroke:#000000; stroke-width:0.1500; stroke-opacity:1; 
stroke-linecap:round; stroke-linejoin:round;">
<g transform="rotate(-90.000000 128.5560 93.2180)">
<text x="128.5560" y="93.7180"
textLength="2.2024" font-size="1.3333" lengthAdjust="spacingAndGlyphs"
text-anchor="middle" opacity="0" stroke-opacity="0">D1</text>
</g>
<g class="stroked-text"><desc>D1</desc>
<path d="M129.0108 93.9561
L128.0108 93.9561
" />
<path d="M128.0108 93.9561
L128.0108 93.7180
" />
<path d="M128.0108 93.7180
L128.0584 93.5751
" />
<path d="M128.0584 93.5751
L128.1537 93.4799
" />
<path d="M128.1537 93.4799
L128.2489 93.4323
" />
<path d="M128.2489 93.4323
L128.4394 93.3847
" />
<path d="M128.4394 93.3847
L128.5822 93.3847
" />
<path d="M128.5822 93.3847
L128.7727 93.4323
" />
<path d="M128.7727 93.4323
L128.8680 93.4799
" />
<path d="M128.8680 93.4799
L128.9632 93.5751
" />
<path d="M128.9632 93.5751
L129.0108 93.7180
" />
<path d="M129.0108 93.7180
L129.0108 93.9561
" />
<path d="M129.0108 92.4323
L129.0108 93.0037
" />
<path d="M129.0108 92.7180
L128.0108 92.7180
" />
<path d="M128.0108 92.7180
L128.1537 92.8132
" />
<path d="M128.1537 92.8132
L128.2489 92.9085
" />
<path d="M128.2489 92.9085
L128.2965 93.0037
" />
</g><text x="132.0000" y="75.8000"
textLength="1.9643" font-size="1.3333" lengthAdjust="spacingAndGlyphs"
text-anchor="middle" opacity="0" stroke-opacity="0">J1</text>
<g class="stroked-text"><desc>J1</desc>
<path d="M131.6667 74.7548
L131.6667 75.4691
" />
<path d="M131.6667 75.4691
L131.6190 75.6120
" />
<path d="M131.6190 75.6120
L131.5238 75.7072
" />
<path d="M131.5238 75.7072
L131.3810 75.7548
" />
<path d="M131.3810 75.7548
L131.2857 75.7548
" />
<path d="M132.6667 75.7548
L132.0952 75.7548
" />
<path d="M132.3810 75.7548
L132.3810 74.7548
" />
<path d="M132.3810 74.7548
L132.2857 74.8977
" />
<path d="M132.2857 74.8977
L132.1905 74.9929
" />
<path d="M132.1905 74.9929
L132.0952 75.0405
" />
</g><text x="132.0000" y="59.3000"
textLength="7.3452" font-size="1.3333" lengthAdjust="spacingAndGlyphs"
text-anchor="middle" opacity="0" stroke-opacity="0">InputJack</text>
<g class="stroked-text"><desc>InputJack</desc>
<path d="M128.6905 59.2548
L128.6905 58.2548
" />
<path d="M129.1667 58.5882
L129.1667 59.2548
" />
<path d="M129.1667 58.6834
L129.2143 58.6358
" />
<path d="M129.2143 58.6358
L129.3095 58.5882
" />
<path d="M129.3095 58.5882
L129.4524 58.5882
" />
<path d="M129.4524 58.5882
L129.5476 58.6358
" />
<path d="M129.5476 58.6358
L129.5952 58.7310
" />
<path d="M129.5952 58.7310
L129.5952 59.2548
" />
<path d="M130.0714 58.5882
L130.0714 59.5882
" />
<path d="M130.0714 58.6358
L130.1667 58.5882
" />
<path d="M130.1667 58.5882
L130.3571 58.5882
" />
<path d="M130.3571 58.5882
L130.4524 58.6358
" />
<path d="M130.4524 58.6358
L130.5000 58.6834
" />
<path d="M130.5000 58.6834
L130.5476 58.7786
" />
<path d="M130.5476 58.7786
L130.5476 59.0643
" />
<path d="M130.5476 59.0643
L130.5000 59.1596
" />
<path d="M130.5000 59.1596
L130.4524 59.2072
" />
<path d="M130.4524 59.2072
L130.3571 59.2548
" />
<path d="M130.3571 59.2548
L130.1667 59.2548
" />
<path d="M130.1667 59.2548
L130.0714 59.2072
" />
<path d="M131.4048 58.5882
L131.4048 59.2548
" />
<path d="M130.9762 58.5882
L130.9762 59.1120
" />
<path d="M130.9762 59.1120
L131.0238 59.2072
" />
<path d="M131.0238 59.2072
L131.1190 59.2548
" />
<path d="M131.1190 59.2548
L131.2619 59.2548
" />
<path d="M131.2619 59.2548
L131.3571 59.2072
" />
<path d="M131.3571 59.2072
L131.4048 59.1596
" />
<path d="M131.7381 58.5882
L132.1190 58.5882
" />
<path d="M131.8810 58.2548
L131.8810 59.1120
" />
<path d="M131.8810 59.1120
L131.9286 59.2072
" />
<path d="M131.9286 59.2072
L132.0238 59.2548
" />
<path d="M132.0238 59.2548
L132.1190 59.2548
" />
<path d="M132.7381 58.2548
L132.7381 58.9691
" />
<path d="M132.7381 58.9691
L132.6905 59.1120
" />
<path d="M132.6905 59.1120
L132.5952 59.2072
" />
<path d="M132.5952 59.2072
L132.4524 59.2548
" />
<path d="M132.4524 59.2548
L132.3571 59.2548
" />
<path d="M133.6429 59.2548
L133.6429 58.7310
" />
<path d="M133.6429 58.7310
L133.5952 58.6358
" />
<path d="M133.5952 58.6358
L133.5000 58.5882
" />
<path d="M133.5000 58.5882
L133.3095 58.5882
" />
<path d="M133.3095 58.5882
L133.2143 58.6358
" />
<path d="M133.6429 59.2072
L133.5476 59.2548
" />
<path d="M133.5476 59.2548
L133.3095 59.2548
" />
<path d="M133.3095 59.2548
L133.2143 59.2072
" />
<path d="M133.2143 59.2072
L133.1667 59.1120
" />
<path d="M133.1667 59.1120
L133.1667 59.0167
" />
<path d="M133.1667 59.0167
L133.2143 58.9215
" />
<path d="M133.2143 58.9215
L133.3095 58.8739
" />
<path d="M133.3095 58.8739
L133.5476 58.8739
" />
<path d="M133.5476 58.8739
L133.6429 58.8262
" />
<path d="M134.5476 59.2072
L134.4524 59.2548
" />
<path d="M134.4524 59.2548
L134.2619 59.2548
" />
<path d="M134.2619 59.2548
L134.1667 59.2072
" />
<path d="M134.1667 59.2072
L134.1190 59.1596
" />
<path d="M134.1190 59.1596
L134.0714 59.0643
" />
<path d="M134.0714 59.0643
L134.0714 58.7786
" />
<path d="M134.0714 58.7786
L134.1190 58.6834
" />
<path d="M134.1190 58.6834
L134.1667 58.6358
" />
<path d="M134.1667 58.6358
L134.2619 58.5882
" />
<path d="M134.2619 58.5882
L134.4524 58.5882
" />
<path d="M134.4524 58.5882
L134.5476 58.6358
" />
<path d="M134.9762 59.2548
L134.9762 58.2548
" />
<path d="M135.0714 58.8739
L135.3571 59.2548
" />
<path d="M135.3571 58.5882
L134.9762 58.9691
" />
</g><g transform="rotate(-90.000000 127.2220 152.3040)">
<text x="127.2220" y="152.8040"
textLength="2.2024" font-size="1.3333" lengthAdjust="spacingAndGlyphs"
text-anchor="middle" opacity="0" stroke-opacity="0">R4</text>
</g>
<g class="stroked-text"><desc>R4</desc>
<path d="M127.6768 152.4707
L127.2006 152.8040
" />
<path d="M127.6768 153.0421
L126.6768 153.0421
" />
<path d="M126.6768 153.0421
L126.6768 152.6611
" />
<path d="M126.6768 152.6611
L126.7244 152.5659
" />
<path d="M126.7244 152.5659
L126.7721 152.5183
" />
<path d="M126.7721 152.5183
L126.8673 152.4707
" />
<path d="M126.8673 152.4707
L127.0102 152.4707
" />
<path d="M127.0102 152.4707
L127.1054 152.5183
" />
<path d="M127.1054 152.5183
L127.1530 152.5659
" />
<path d="M127.1530 152.5659
L127.2006 152.6611
" />
<path d="M127.2006 152.6611
L127.2006 153.0421
" />
<path d="M127.0102 151.6135
L127.6768 151.6135
" />
<path d="M126.6292 151.8516
L127.3435 152.0897
" />
<path d="M127.3435 152.0897
L127.3435 151.4707
" />
</g><g transform="rotate(-90.000000 135.0960 93.2180)">
<text x="135.0960" y="93.7180"
textLength="2.2024" font-size="1.3333" lengthAdjust="spacingAndGlyphs"
text-anchor="middle" opacity="0" stroke-opacity="0">D2</text>
</g>
<g class="stroked-text"><desc>D2</desc>
<path d="M135.5508 93.9561
L134.5508 93.9561
" />
<path d="M134.5508 93.9561
L134.5508 93.7180
" />
<path d="M134.5508 93.7180
L134.5984 93.5751
" />
<path d="M134.5984 93.5751
L134.6937 93.4799
" />
<path d="M134.6937 93.4799
L134.7889 93.4323
" />
<path d="M134.7889 93.4323
L134.9794 93.3847
" />
<path d="M134.9794 93.3847
L135.1222 93.3847
" />
<path d="M135.1222 93.3847
L135.3127 93.4323
" />
<path d="M135.3127 93.4323
L135.4080 93.4799
" />
<path d="M135.4080 93.4799
L135.5032 93.5751
" />
<path d="M135.5032 93.5751
L135.5508 93.7180
" />
<path d="M135.5508 93.7180
L135.5508 93.9561
" />
<path d="M134.6461 93.0037
L134.5984 92.9561
" />
<path d="M134.5984 92.9561
L134.5508 92.8609
" />
<path d="M134.5508 92.8609
L134.5508 92.6228
" />
<path d="M134.5508 92.6228
L134.5984 92.5275
" />
<path d="M134.5984 92.5275
L134.6461 92.4799
" />
<path d="M134.6461 92.4799
L134.7413 92.4323
" />
<path d="M134.7413 92.4323
L134.8365 92.4323
" />
<path d="M134.8365 92.4323
L134.9794 92.4799
" />
<path d="M134.9794 92.4799
L135.5508 93.0513
" />
<path d="M135.5508 93.0513
L135.5508 92.4323
" />
</g><text x="131.8740" y="156.6280"
textLength="1.9643" font-size="1.3333" lengthAdjust="spacingAndGlyphs"
text-anchor="middle" opacity="0" stroke-opacity="0">J2</text>
<g class="stroked-text"><desc>J2</desc>
<path d="M131.5407 155.5828
L131.5407 156.2971
" />
<path d="M131.5407 156.2971
L131.4930 156.4400
" />
<path d="M131.4930 156.4400
L131.3978 156.5352
" />
<path d="M131.3978 156.5352
L131.2550 156.5828
" />
<path d="M131.2550 156.5828
L131.1597 156.5828
" />
<path d="M131.9692 155.6781
L132.0169 155.6304
" />
<path d="M132.0169 155.6304
L132.1121 155.5828
" />
<path d="M132.1121 155.5828
L132.3502 155.5828
" />
<path d="M132.3502 155.5828
L132.4454 155.6304
" />
<path d="M132.4454 155.6304
L132.4930 155.6781
" />
<path d="M132.4930 155.6781
L132.5407 155.7733
" />
<path d="M132.5407 155.7733
L132.5407 155.8685
" />
<path d="M132.5407 155.8685
L132.4930 156.0114
" />
<path d="M132.4930 156.0114
L131.9216 156.5828
" />
<path d="M131.9216 156.5828
L132.5407 156.5828
" />
</g><text x="132.0000" y="171.7000"
textLength="8.4881" font-size="1.3333" lengthAdjust="spacingAndGlyphs"
text-anchor="middle" opacity="0" stroke-opacity="0">OutputJack</text>
<g class="stroked-text"><desc>OutputJack</desc>
<path d="M128.3095 170.6548
L128.5000 170.6548
" />
<path d="M128.5000 170.6548
L128.5952 170.7024
" />
<path d="M128.5952 170.7024
L128.6905 170.7977
" />
<path d="M128.6905 170.7977
L128.7381 170.9882
" />
<path d="M128.7381 170.9882
L128.7381 171.3215
" />
<path d="M128.7381 171.3215
L128.6905 171.5120
" />
<path d="M128.6905 171.5120
L128.5952 171.6072
" />
<path d="M128.5952 171.6072
L128.5000 171.6548
" />
<path d="M128.5000 171.6548
L128.3095 171.6548
" />
<path d="M128.3095 171.6548
L128.2143 171.6072
" />
<path d="M128.2143 171.6072
L128.1190 171.5120
" />
<path d="M128.1190 171.5120
L128.0714 171.3215
" />
<path d="M128.0714 171.3215
L128.0714 170.9882
" />
<path d="M128.0714 170.9882
L128.1190 170.7977
" />
<path d="M128.1190 170.7977
L128.2143 170.7024
" />
<path d="M128.2143 170.7024
L128.3095 170.6548
" />
<path d="M129.5952 170.9882
L129.5952 171.6548
" />
<path d="M129.1667 170.9882
L129.1667 171.5120
" />
<path d="M129.1667 171.5120
L129.2143 171.6072
" />
<path d="M129.2143 171.6072
L129.3095 171.6548
" />
<path d="M129.3095 171.6548
L129.4524 171.6548
" />
<path d="M129.4524 171.6548
L129.5476 171.6072
" />
<path d="M129.5476 171.6072
L129.5952 171.5596
" />
<path d="M129.9286 170.9882
L130.3095 170.9882
" />
<path d="M130.0714 170.6548
L130.0714 171.5120
" />
<path d="M130.0714 171.5120
L130.1190 171.6072
" />
<path d="M130.1190 171.6072
L130.2143 171.6548
" />
<path d="M130.2143 171.6548
L130.3095 171.6548
" />
<path d="M130.6429 170.9882
L130.6429 171.9882
" />
<path d="M130.6429 171.0358
L130.7381 170.9882
" />
<path d="M130.7381 170.9882
L130.9286 170.9882
" />
<path d="M130.9286 170.9882
L131.0238 171.0358
" />
<path d="M131.0238 171.0358
L131.0714 171.0834
" />
<path d="M131.0714 171.0834
L131.1190 171.1786
" />
<path d="M131.1190 171.1786
L131.1190 171.4643
" />
<path d="M131.1190 171.4643
L131.0714 171.5596
" />
<path d="M131.0714 171.5596
L131.0238 171.6072
" />
<path d="M131.0238 171.6072
L130.9286 171.6548
" />
<path d="M130.9286 171.6548
L130.7381 171.6548
" />
<path d="M130.7381 171.6548
L130.6429 171.6072
" />
<path d="M131.9762 170.9882
L131.9762 171.6548
" />
<path d="M131.5476 170.9882
L131.5476 171.5120
" />
<path d="M131.5476 171.5120
L131.5952 171.6072
" />
<path d="M131.5952 171.6072
L131.6905 171.6548
" />
<path d="M131.6905 171.6548
L131.8333 171.6548
" />
<path d="M131.8333 171.6548
L131.9286 171.6072
" />
<path d="M131.9286 171.6072
L131.9762 171.5596
" />
<path d="M132.3095 170.9882
L132.6905 170.9882
" />
<path d="M132.4524 170.6548
L132.4524 171.5120
" />
<path d="M132.4524 171.5120
L132.5000 171.6072
" />
<path d="M132.5000 171.6072
L132.5952 171.6548
" />
<path d="M132.5952 171.6548
L132.6905 171.6548
" />
<path d="M133.3095 170.6548
L133.3095 171.3691
" />
<path d="M133.3095 171.3691
L133.2619 171.5120
" />
<path d="M133.2619 171.5120
L133.1667 171.6072
" />
<path d="M133.1667 171.6072
L133.0238 171.6548
" />
<path d="M133.0238 171.6548
L132.9286 171.6548
" />
<path d="M134.2143 171.6548
L134.2143 171.1310
" />
<path d="M134.2143 171.1310
L134.1667 171.0358
" />
<path d="M134.1667 171.0358
L134.0714 170.9882
" />
<path d="M134.0714 170.9882
L133.8810 170.9882
" />
<path d="M133.8810 170.9882
L133.7857 171.0358
" />
<path d="M134.2143 171.6072
L134.1190 171.6548
" />
<path d="M134.1190 171.6548
L133.8810 171.6548
" />
<path d="M133.8810 171.6548
L133.7857 171.6072
" />
<path d="M133.7857 171.6072
L133.7381 171.5120
" />
<path d="M133.7381 171.5120
L133.7381 171.4167
" />
<path d="M133.7381 171.4167
L133.7857 171.3215
" />
<path d="M133.7857 171.3215
L133.8810 171.2739
" />
<path d="M133.8810 171.2739
L134.1190 171.2739
" />
<path d="M134.1190 171.2739
L134.2143 171.2262
" />
<path d="M135.1190 171.6072
L135.0238 171.6548
" />
<path d="M135.0238 171.6548
L134.8333 171.6548
" />
<path d="M134.8333 171.6548
L134.7381 171.6072
" />
<path d="M134.7381 171.6072
L134.6905 171.5596
" />
<path d="M134.6905 171.5596
L134.6429 171.4643
" />
<path d="M134.6429 171.4643
L134.6429 171.1786
" />
<path d="M134.6429 171.1786
L134.6905 171.0834
" />
<path d="M134.6905 171.0834
L134.7381 171.0358
" />
<path d="M134.7381 171.0358
L134.8333 170.9882
" />
<path d="M134.8333 170.9882
L135.0238 170.9882
" />
<path d="M135.0238 170.9882
L135.1190 171.0358
" />
<path d="M135.5476 171.6548
L135.5476 170.6548
" />
<path d="M135.6429 171.2739
L135.9286 171.6548
" />
<path d="M135.9286 170.9882
L135.5476 171.3691
" />
</g><text x="132.0050" y="156.2600"
textLength="2.2024" font-size="1.3333" lengthAdjust="spacingAndGlyphs"
text-anchor="middle" opacity="0" stroke-opacity="0">D3</text>
<g class="stroked-text"><desc>D3</desc>
<path d="M131.2669 156.2148
L131.2669 155.2148
" />
<path d="M131.2669 155.2148
L131.5050 155.2148
" />
<path d="M131.5050 155.2148
L131.6479 155.2624
" />
<path d="M131.6479 155.2624
L131.7431 155.3577
" />
<path d="M131.7431 155.3577
L131.7907 155.4529
" />
<path d="M131.7907 155.4529
L131.8383 155.6434
" />
<path d="M131.8383 155.6434
L131.8383 155.7862
" />
<path d="M131.8383 155.7862
L131.7907 155.9767
" />
<path d="M131.7907 155.9767
L131.7431 156.0720
" />
<path d="M131.7431 156.0720
L131.6479 156.1672
" />
<path d="M131.6479 156.1672
L131.5050 156.2148
" />
<path d="M131.5050 156.2148
L131.2669 156.2148
" />
<path d="M132.1717 155.2148
L132.7907 155.2148
" />
<path d="M132.7907 155.2148
L132.4574 155.5958
" />
<path d="M132.4574 155.5958
L132.6002 155.5958
" />
<path d="M132.6002 155.5958
L132.6955 155.6434
" />
<path d="M132.6955 155.6434
L132.7431 155.6910
" />
<path d="M132.7431 155.6910
L132.7907 155.7862
" />
<path d="M132.7907 155.7862
L132.7907 156.0243
" />
<path d="M132.7907 156.0243
L132.7431 156.1196
" />
<path d="M132.7431 156.1196
L132.6955 156.1672
" />
<path d="M132.6955 156.1672
L132.6002 156.2148
" />
<path d="M132.6002 156.2148
L132.3145 156.2148
" />
<path d="M132.3145 156.2148
L132.2193 156.1672
" />
<path d="M132.2193 156.1672
L132.1717 156.1196
" />
</g><g transform="rotate(-90.000000 128.0160 106.9650)">
<text x="128.0160" y="107.4650"
textLength="2.2024" font-size="1.3333" lengthAdjust="spacingAndGlyphs"
text-anchor="middle" opacity="0" stroke-opacity="0">R2</text>
</g>
<g class="stroked-text"><desc>R2</desc>
<path d="M128.4708 107.1317
L127.9946 107.4650
" />
<path d="M128.4708 107.7031
L127.4708 107.7031
" />
<path d="M127.4708 107.7031
L127.4708 107.3221
" />
<path d="M127.4708 107.3221
L127.5184 107.2269
" />
<path d="M127.5184 107.2269
L127.5661 107.1793
" />
<path d="M127.5661 107.1793
L127.6613 107.1317
" />
<path d="M127.6613 107.1317
L127.8042 107.1317
" />
<path d="M127.8042 107.1317
L127.8994 107.1793
" />
<path d="M127.8994 107.1793
L127.9470 107.2269
" />
<path d="M127.9470 107.2269
L127.9946 107.3221
" />
<path d="M127.9946 107.3221
L127.9946 107.7031
" />
<path d="M127.5661 106.7507
L127.5184 106.7031
" />
<path d="M127.5184 106.7031
L127.4708 106.6079
" />
<path d="M127.4708 106.6079
L127.4708 106.3698
" />
<path d="M127.4708 106.3698
L127.5184 106.2745
" />
<path d="M127.5184 106.2745
L127.5661 106.2269
" />
<path d="M127.5661 106.2269
L127.6613 106.1793
" />
<path d="M127.6613 106.1793
L127.7565 106.1793
" />
<path d="M127.7565 106.1793
L127.8994 106.2269
" />
<path d="M127.8994 106.2269
L128.4708 106.7983
" />
<path d="M128.4708 106.7983
L128.4708 106.1793
" />
</g><g transform="rotate(-90.000000 130.2040 135.1280)">
<text x="130.2040" y="135.6280"
textLength="2.2024" font-size="1.3333" lengthAdjust="spacingAndGlyphs"
text-anchor="middle" opacity="0" stroke-opacity="0">C4</text>
</g>
<g class="stroked-text"><desc>C4</desc>
<path d="M130.5636 135.2947
L130.6112 135.3423
" />
<path d="M130.6112 135.3423
L130.6588 135.4851
" />
<path d="M130.6588 135.4851
L130.6588 135.5804
" />
<path d="M130.6588 135.5804
L130.6112 135.7232
" />
<path d="M130.6112 135.7232
L130.5160 135.8185
" />
<path d="M130.5160 135.8185
L130.4207 135.8661
" />
<path d="M130.4207 135.8661
L130.2302 135.9137
" />
<path d="M130.2302 135.9137
L130.0874 135.9137
" />
<path d="M130.0874 135.9137
L129.8969 135.8661
" />
<path d="M129.8969 135.8661
L129.8017 135.8185
" />
<path d="M129.8017 135.8185
L129.7064 135.7232
" />
<path d="M129.7064 135.7232
L129.6588 135.5804
" />
<path d="M129.6588 135.5804
L129.6588 135.4851
" />
<path d="M129.6588 135.4851
L129.7064 135.3423
" />
<path d="M129.7064 135.3423
L129.7541 135.2947
" />
<path d="M129.9922 134.4375
L130.6588 134.4375
" />
<path d="M129.6112 134.6756
L130.3255 134.9137
" />
<path d="M130.3255 134.9137
L130.3255 134.2947
" />
</g><text x="133.0995" y="125.8900"
textLength="2.2500" font-size="1.3333" lengthAdjust="spacingAndGlyphs"
text-anchor="middle" opacity="0" stroke-opacity="0">U1</text>
<g class="stroked-text"><desc>U1</desc>
<path d="M132.3376 124.8448
L132.3376 125.6543
" />
<path d="M132.3376 125.6543
L132.3852 125.7496
" />
<path d="M132.3852 125.7496
L132.4328 125.7972
" />
<path d="M132.4328 125.7972
L132.5281 125.8448
" />
<path d="M132.5281 125.8448
L132.7185 125.8448
" />
<path d="M132.7185 125.8448
L132.8138 125.7972
" />
<path d="M132.8138 125.7972
L132.8614 125.7496
" />
<path d="M132.8614 125.7496
L132.9090 125.6543
" />
<path d="M132.9090 125.6543
L132.9090 124.8448
" />
<path d="M133.9090 125.8448
L133.3376 125.8448
" />
<path d="M133.6233 125.8448
L133.6233 124.8448
" />
<path d="M133.6233 124.8448
L133.5281 124.9877
" />
<path d="M133.5281 124.9877
L133.4328 125.0829
" />
<path d="M133.4328 125.0829
L133.3376 125.1305
" />
</g><g transform="rotate(-90.000000 124.2000 93.9000)">
<text x="124.2000" y="94.4000"
textLength="4.5357" font-size="1.3333" lengthAdjust="spacingAndGlyphs"
text-anchor="middle" opacity="0" stroke-opacity="0">FALL1</text>
</g>
<g class="stroked-text"><desc>FALL1</desc>
<path d="M124.1310 95.4714
L124.1310 95.8048
" />
<path d="M124.6548 95.8048
L123.6548 95.8048
" />
<path d="M123.6548 95.8048
L123.6548 95.3286
" />
<path d="M124.3691 94.9952
L124.3691 94.5190
" />
<path d="M124.6548 95.0905
L123.6548 94.7571
" />
<path d="M123.6548 94.7571
L124.6548 94.4238
" />
<path d="M124.6548 93.6143
L124.6548 94.0905
" />
<path d="M124.6548 94.0905
L123.6548 94.0905
" />
<path d="M124.6548 92.8048
L124.6548 93.2810
" />
<path d="M124.6548 93.2810
L123.6548 93.2810
" />
<path d="M124.6548 91.9476
L124.6548 92.5190
" />
<path d="M124.6548 92.2333
L123.6548 92.2333
" />
<path d="M123.6548 92.2333
L123.7977 92.3286
" />
<path d="M123.7977 92.3286
L123.8929 92.4238
" />
<path d="M123.8929 92.4238
L123.9405 92.5190
" />
</g><g transform="rotate(-90.000000 130.2040 143.2560)">
<text x="130.2040" y="143.7560"
textLength="2.2024" font-size="1.3333" lengthAdjust="spacingAndGlyphs"
text-anchor="middle" opacity="0" stroke-opacity="0">C5</text>
</g>
<g class="stroked-text"><desc>C5</desc>
<path d="M130.5636 143.4227
L130.6112 143.4703
" />
<path d="M130.6112 143.4703
L130.6588 143.6131
" />
<path d="M130.6588 143.6131
L130.6588 143.7084
" />
<path d="M130.6588 143.7084
L130.6112 143.8512
" />
<path d="M130.6112 143.8512
L130.5160 143.9465
" />
<path d="M130.5160 143.9465
L130.4207 143.9941
" />
<path d="M130.4207 143.9941
L130.2302 144.0417
" />
<path d="M130.2302 144.0417
L130.0874 144.0417
" />
<path d="M130.0874 144.0417
L129.8969 143.9941
" />
<path d="M129.8969 143.9941
L129.8017 143.9465
" />
<path d="M129.8017 143.9465
L129.7064 143.8512
" />
<path d="M129.7064 143.8512
L129.6588 143.7084
" />
<path d="M129.6588 143.7084
L129.6588 143.6131
" />
<path d="M129.6588 143.6131
L129.7064 143.4703
" />
<path d="M129.7064 143.4703
L129.7541 143.4227
" />
<path d="M129.6588 142.5179
L129.6588 142.9941
" />
<path d="M129.6588 142.9941
L130.1350 143.0417
" />
<path d="M130.1350 143.0417
L130.0874 142.9941
" />
<path d="M130.0874 142.9941
L130.0398 142.8989
" />
<path d="M130.0398 142.8989
L130.0398 142.6608
" />
<path d="M130.0398 142.6608
L130.0874 142.5655
" />
<path d="M130.0874 142.5655
L130.1350 142.5179
" />
<path d="M130.1350 142.5179
L130.2302 142.4703
" />
<path d="M130.2302 142.4703
L130.4683 142.4703
" />
<path d="M130.4683 142.4703
L130.5636 142.5179
" />
<path d="M130.5636 142.5179
L130.6112 142.5655
" />
<path d="M130.6112 142.5655
L130.6588 142.6608
" />
<path d="M130.6588 142.6608
L130.6588 142.8989
" />
<path d="M130.6588 142.8989
L130.6112 142.9941
" />
<path d="M130.6112 142.9941
L130.5636 143.0417
" />
</g><g transform="rotate(-90.000000 133.5100 163.7670)">
<text x="133.5100" y="164.2670"
textLength="2.2024" font-size="1.3333" lengthAdjust="spacingAndGlyphs"
text-anchor="middle" opacity="0" stroke-opacity="0">R3</text>
</g>
<g class="stroked-text"><desc>R3</desc>
<path d="M133.9648 163.9337
L133.4886 164.2670
" />
<path d="M133.9648 164.5051
L132.9648 164.5051
" />
<path d="M132.9648 164.5051
L132.9648 164.1241
" />
<path d="M132.9648 164.1241
L133.0124 164.0289
" />
<path d="M133.0124 164.0289
L133.0601 163.9813
" />
<path d="M133.0601 163.9813
L133.1553 163.9337
" />
<path d="M133.1553 163.9337
L133.2982 163.9337
" />
<path d="M133.2982 163.9337
L133.3934 163.9813
" />
<path d="M133.3934 163.9813
L133.4410 164.0289
" />
<path d="M133.4410 164.0289
L133.4886 164.1241
" />
<path d="M133.4886 164.1241
L133.4886 164.5051
" />
<path d="M132.9648 163.6003
L132.9648 162.9813
" />
<path d="M132.9648 162.9813
L133.3458 163.3146
" />
<path d="M133.3458 163.3146
L133.3458 163.1718
" />
<path d="M133.3458 163.1718
L133.3934 163.0765
" />
<path d="M133.3934 163.0765
L133.4410 163.0289
" />
<path d="M133.4410 163.0289
L133.5362 162.9813
" />
<path d="M133.5362 162.9813
L133.7743 162.9813
" />
<path d="M133.7743 162.9813
L133.8696 163.0289
" />
<path d="M133.8696 163.0289
L133.9172 163.0765
" />
<path d="M133.9172 163.0765
L133.9648 163.1718
" />
<path d="M133.9648 163.1718
L133.9648 163.4575
" />
<path d="M133.9648 163.4575
L133.9172 163.5527
" />
<path d="M133.9172 163.5527
L133.8696 163.6003
" />
</g><text x="132.2000" y="102.3000"
textLength="3.2976" font-size="1.3333" lengthAdjust="spacingAndGlyphs"
text-anchor="middle" opacity="0" stroke-opacity="0">SW1</text>
<g class="stroked-text"><desc>SW1</desc>
<path d="M130.8667 102.2072
L131.0095 102.2548
" />
<path d="M131.0095 102.2548
L131.2476 102.2548
" />
<path d="M131.2476 102.2548
L131.3429 102.2072
" />
<path d="M131.3429 102.2072
L131.3905 102.1596
" />
<path d="M131.3905 102.1596
L131.4381 102.0643
" />
<path d="M131.4381 102.0643
L131.4381 101.9691
" />
<path d="M131.4381 101.9691
L131.3905 101.8739
" />
<path d="M131.3905 101.8739
L131.3429 101.8262
" />
<path d="M131.3429 101.8262
L131.2476 101.7786
" />
<path d="M131.2476 101.7786
L131.0571 101.7310
" />
<path d="M131.0571 101.7310
L130.9619 101.6834
" />
<path d="M130.9619 101.6834
L130.9143 101.6358
" />
<path d="M130.9143 101.6358
L130.8667 101.5405
" />
<path d="M130.8667 101.5405
L130.8667 101.4453
" />
<path d="M130.8667 101.4453
L130.9143 101.3501
" />
<path d="M130.9143 101.3501
L130.9619 101.3024
" />
<path d="M130.9619 101.3024
L131.0571 101.2548
" />
<path d="M131.0571 101.2548
L131.2952 101.2548
" />
<path d="M131.2952 101.2548
L131.4381 101.3024
" />
<path d="M131.7714 101.2548
L132.0095 102.2548
" />
<path d="M132.0095 102.2548
L132.2000 101.5405
" />
<path d="M132.2000 101.5405
L132.3905 102.2548
" />
<path d="M132.3905 102.2548
L132.6286 101.2548
" />
<path d="M133.5333 102.2548
L132.9619 102.2548
" />
<path d="M133.2476 102.2548
L133.2476 101.2548
" />
<path d="M133.2476 101.2548
L133.1524 101.3977
" />
<path d="M133.1524 101.3977
L133.0571 101.4929
" />
<path d="M133.0571 101.4929
L132.9619 101.5405
" />
</g><text x="132.2000" y="112.6000"
textLength="10.8214" font-size="1.3333" lengthAdjust="spacingAndGlyphs"
text-anchor="middle" opacity="0" stroke-opacity="0">SW_SPDT_MSM</text>
<g class="stroked-text"><desc>SW_SPDT_MSM</desc>
<path d="M127.1048 112.5072
L127.2476 112.5548
" />
<path d="M127.2476 112.5548
L127.4857 112.5548
" />
<path d="M127.4857 112.5548
L127.5810 112.5072
" />
<path d="M127.5810 112.5072
L127.6286 112.4596
" />
<path d="M127.6286 112.4596
L127.6762 112.3643
" />
<path d="M127.6762 112.3643
L127.6762 112.2691
" />
<path d="M127.6762 112.2691
L127.6286 112.1739
" />
<path d="M127.6286 112.1739
L127.5810 112.1262
" />
<path d="M127.5810 112.1262
L127.4857 112.0786
" />
<path d="M127.4857 112.0786
L127.2952 112.0310
" />
<path d="M127.2952 112.0310
L127.2000 111.9834
" />
<path d="M127.2000 111.9834
L127.1524 111.9358
" />
<path d="M127.1524 111.9358
L127.1048 111.8405
" />
<path d="M127.1048 111.8405
L127.1048 111.7453
" />
<path d="M127.1048 111.7453
L127.1524 111.6501
" />
<path d="M127.1524 111.6501
L127.2000 111.6024
" />
<path d="M127.2000 111.6024
L127.2952 111.5548
" />
<path d="M127.2952 111.5548
L127.5333 111.5548
" />
<path d="M127.5333 111.5548
L127.6762 111.6024
" />
<path d="M128.0095 111.5548
L128.2476 112.5548
" />
<path d="M128.2476 112.5548
L128.4381 111.8405
" />
<path d="M128.4381 111.8405
L128.6286 112.5548
" />
<path d="M128.6286 112.5548
L128.8667 111.5548
" />
<path d="M129.0095 112.6501
L129.7714 112.6501
" />
<path d="M129.9619 112.5072
L130.1048 112.5548
" />
<path d="M130.1048 112.5548
L130.3429 112.5548
" />
<path d="M130.3429 112.5548
L130.4381 112.5072
" />
<path d="M130.4381 112.5072
L130.4857 112.4596
" />
<path d="M130.4857 112.4596
L130.5333 112.3643
" />
<path d="M130.5333 112.3643
L130.5333 112.2691
" />
<path d="M130.5333 112.2691
L130.4857 112.1739
" />
<path d="M130.4857 112.1739
L130.4381 112.1262
" />
<path d="M130.4381 112.1262
L130.3429 112.0786
" />
<path d="M130.3429 112.0786
L130.1524 112.0310
" />
<path d="M130.1524 112.0310
L130.0571 111.9834
" />
<path d="M130.0571 111.9834
L130.0095 111.9358
" />
<path d="M130.0095 111.9358
L129.9619 111.8405
" />
<path d="M129.9619 111.8405
L129.9619 111.7453
" />
<path d="M129.9619 111.7453
L130.0095 111.6501
" />
<path d="M130.0095 111.6501
L130.0571 111.6024
" />
<path d="M130.0571 111.6024
L130.1524 111.5548
" />
<path d="M130.1524 111.5548
L130.3905 111.5548
" />
<path d="M130.3905 111.5548
L130.5333 111.6024
" />
<path d="M130.9619 112.5548
L130.9619 111.5548
" />
<path d="M130.9619 111.5548
L131.3429 111.5548
" />
<path d="M131.3429 111.5548
L131.4381 111.6024
" />
<path d="M131.4381 111.6024
L131.4857 111.6501
" />
<path d="M131.4857 111.6501
L131.5333 111.7453
" />
<path d="M131.5333 111.7453
L131.5333 111.8882
" />
<path d="M131.5333 111.8882
L131.4857 111.9834
" />
<path d="M131.4857 111.9834
L131.4381 112.0310
" />
<path d="M131.4381 112.0310
L131.3429 112.0786
" />
<path d="M131.3429 112.0786
L130.9619 112.0786
" />
<path d="M131.9619 112.5548
L131.9619 111.5548
" />
<path d="M131.9619 111.5548
L132.2000 111.5548
" />
<path d="M132.2000 111.5548
L132.3429 111.6024
" />
<path d="M132.3429 111.6024
L132.4381 111.6977
" />
<path d="M132.4381 111.6977
L132.4857 111.7929
" />
<path d="M132.4857 111.7929
L132.5333 111.9834
" />
<path d="M132.5333 111.9834
L132.5333 112.1262
" />
<path d="M132.5333 112.1262
L132.4857 112.3167
" />
<path d="M132.4857 112.3167
L132.4381 112.4120
" />
<path d="M132.4381 112.4120
L132.3429 112.5072
" />
<path d="M132.3429 112.5072
L132.2000 112.5548
" />
<path d="M132.2000 112.5548
L131.9619 112.5548
" />
<path d="M132.8190 111.5548
L133.3905 111.5548
" />
<path d="M133.1048 112.5548
L133.1048 111.5548
" />
<path d="M133.4857 112.6501
L134.2476 112.6501
" />
<path d="M134.4857 112.5548
L134.4857 111.5548
" />
<path d="M134.4857 111.5548
L134.8190 112.2691
" />
<path d="M134.8190 112.2691
L135.1524 111.5548
" />
<path d="M135.1524 111.5548
L135.1524 112.5548
" />
<path d="M135.5810 112.5072
L135.7238 112.5548
" />
<path d="M135.7238 112.5548
L135.9619 112.5548
" />
<path d="M135.9619 112.5548
L136.0571 112.5072
" />
<path d="M136.0571 112.5072
L136.1048 112.4596
" />
<path d="M136.1048 112.4596
L136.1524 112.3643
" />
<path d="M136.1524 112.3643
L136.1524 112.2691
" />
<path d="M136.1524 112.2691
L136.1048 112.1739
" />
<path d="M136.1048 112.1739
L136.0571 112.1262
" />
<path d="M136.0571 112.1262
L135.9619 112.0786
" />
<path d="M135.9619 112.0786
L135.7714 112.0310
" />
<path d="M135.7714 112.0310
L135.6762 111.9834
" />
<path d="M135.6762 111.9834
L135.6286 111.9358
" />
<path d="M135.6286 111.9358
L135.5810 111.8405
" />
<path d="M135.5810 111.8405
L135.5810 111.7453
" />
<path d="M135.5810 111.7453
L135.6286 111.6501
" />
<path d="M135.6286 111.6501
L135.6762 111.6024
" />
<path d="M135.6762 111.6024
L135.7714 111.5548
" />
<path d="M135.7714 111.5548
L136.0095 111.5548
" />
<path d="M136.0095 111.5548
L136.1524 111.6024
" />
<path d="M136.5810 112.5548
L136.5810 111.5548
" />
<path d="M136.5810 111.5548
L136.9143 112.2691
" />
<path d="M136.9143 112.2691
L137.2476 111.5548
" />
<path d="M137.2476 111.5548
L137.2476 112.5548
" />
</g><g transform="rotate(-90.000000 137.4800 104.8375)">
<text x="137.4800" y="105.3375"
textLength="2.2024" font-size="1.3333" lengthAdjust="spacingAndGlyphs"
text-anchor="middle" opacity="0" stroke-opacity="0">C1</text>
</g>
<g class="stroked-text"><desc>C1</desc>
<path d="M137.8396 105.0042
L137.8872 105.0518
" />
<path d="M137.8872 105.0518
L137.9348 105.1946
" />
<path d="M137.9348 105.1946
L137.9348 105.2899
" />
<path d="M137.9348 105.2899
L137.8872 105.4327
" />
<path d="M137.8872 105.4327
L137.7920 105.5280
" />
<path d="M137.7920 105.5280
L137.6967 105.5756
" />
<path d="M137.6967 105.5756
L137.5062 105.6232
" />
<path d="M137.5062 105.6232
L137.3634 105.6232
" />
<path d="M137.3634 105.6232
L137.1729 105.5756
" />
<path d="M137.1729 105.5756
L137.0777 105.5280
" />
<path d="M137.0777 105.5280
L136.9824 105.4327
" />
<path d="M136.9824 105.4327
L136.9348 105.2899
" />
<path d="M136.9348 105.2899
L136.9348 105.1946
" />
<path d="M136.9348 105.1946
L136.9824 105.0518
" />
<path d="M136.9824 105.0518
L137.0301 105.0042
" />
<path d="M137.9348 104.0518
L137.9348 104.6232
" />
<path d="M137.9348 104.3375
L136.9348 104.3375
" />
<path d="M136.9348 104.3375
L137.0777 104.4327
" />
<path d="M137.0777 104.4327
L137.1729 104.5280
" />
<path d="M137.1729 104.5280
L137.2205 104.6232
" />
</g><g transform="rotate(-90.000000 133.5100 65.0240)">
<text x="133.5100" y="65.5240"
textLength="2.2024" font-size="1.3333" lengthAdjust="spacingAndGlyphs"
text-anchor="middle" opacity="0" stroke-opacity="0">R1</text>
</g>
<g class="stroked-text"><desc>R1</desc>
<path d="M133.9648 65.1907
L133.4886 65.5240
" />
<path d="M133.9648 65.7621
L132.9648 65.7621
" />
<path d="M132.9648 65.7621
L132.9648 65.3811
" />
<path d="M132.9648 65.3811
L133.0124 65.2859
" />
<path d="M133.0124 65.2859
L133.0601 65.2383
" />
<path d="M133.0601 65.2383
L133.1553 65.1907
" />
<path d="M133.1553 65.1907
L133.2982 65.1907
" />
<path d="M133.2982 65.1907
L133.3934 65.2383
" />
<path d="M133.3934 65.2383
L133.4410 65.2859
" />
<path d="M133.4410 65.2859
L133.4886 65.3811
" />
<path d="M133.4886 65.3811
L133.4886 65.7621
" />
<path d="M133.9648 64.2383
L133.9648 64.8097
" />
<path d="M133.9648 64.5240
L132.9648 64.5240
" />
<path d="M132.9648 64.5240
L133.1077 64.6192
" />
<path d="M133.1077 64.6192
L133.2029 64.7145
" />
<path d="M133.2029 64.7145
L133.2505 64.8097
" />
</g><text x="134.8000" y="127.1800"
textLength="2.2024" font-size="1.3333" lengthAdjust="spacingAndGlyphs"
text-anchor="middle" opacity="0" stroke-opacity="0">C6</text>
<g class="stroked-text"><desc>C6</desc>
<path d="M134.6333 127.0396
L134.5857 127.0872
" />
<path d="M134.5857 127.0872
L134.4429 127.1348
" />
<path d="M134.4429 127.1348
L134.3476 127.1348
" />
<path d="M134.3476 127.1348
L134.2048 127.0872
" />
<path d="M134.2048 127.0872
L134.1095 126.9920
" />
<path d="M134.1095 126.9920
L134.0619 126.8967
" />
<path d="M134.0619 126.8967
L134.0143 126.7062
" />
<path d="M134.0143 126.7062
L134.0143 126.5634
" />
<path d="M134.0143 126.5634
L134.0619 126.3729
" />
<path d="M134.0619 126.3729
L134.1095 126.2777
" />
<path d="M134.1095 126.2777
L134.2048 126.1824
" />
<path d="M134.2048 126.1824
L134.3476 126.1348
" />
<path d="M134.3476 126.1348
L134.4429 126.1348
" />
<path d="M134.4429 126.1348
L134.5857 126.1824
" />
<path d="M134.5857 126.1824
L134.6333 126.2301
" />
<path d="M135.4905 126.1348
L135.3000 126.1348
" />
<path d="M135.3000 126.1348
L135.2048 126.1824
" />
<path d="M135.2048 126.1824
L135.1571 126.2301
" />
<path d="M135.1571 126.2301
L135.0619 126.3729
" />
<path d="M135.0619 126.3729
L135.0143 126.5634
" />
<path d="M135.0143 126.5634
L135.0143 126.9443
" />
<path d="M135.0143 126.9443
L135.0619 127.0396
" />
<path d="M135.0619 127.0396
L135.1095 127.0872
" />
<path d="M135.1095 127.0872
L135.2048 127.1348
" />
<path d="M135.2048 127.1348
L135.3952 127.1348
" />
<path d="M135.3952 127.1348
L135.4905 127.0872
" />
<path d="M135.4905 127.0872
L135.5381 127.0396
" />
<path d="M135.5381 127.0396
L135.5857 126.9443
" />
<path d="M135.5857 126.9443
L135.5857 126.7062
" />
<path d="M135.5857 126.7062
L135.5381 126.6110
" />
<path d="M135.5381 126.6110
L135.4905 126.5634
" />
<path d="M135.4905 126.5634
L135.3952 126.5158
" />
<path d="M135.3952 126.5158
L135.2048 126.5158
" />
<path d="M135.2048 126.5158
L135.1095 126.5634
" />
<path d="M135.1095 126.5634
L135.0619 126.6110
" />
<path d="M135.0619 126.6110
L135.0143 126.7062
" />
</g><text x="131.3000" y="134.7800"
textLength="2.2024" font-size="1.3333" lengthAdjust="spacingAndGlyphs"
text-anchor="middle" opacity="0" stroke-opacity="0">C7</text>
<g class="stroked-text"><desc>C7</desc>
<path d="M131.1333 134.6396
L131.0857 134.6872
" />
<path d="M131.0857 134.6872
L130.9429 134.7348
" />
<path d="M130.9429 134.7348
L130.8476 134.7348
" />
<path d="M130.8476 134.7348
L130.7048 134.6872
" />
<path d="M130.7048 134.6872
L130.6095 134.5920
" />
<path d="M130.6095 134.5920
L130.5619 134.4967
" />
<path d="M130.5619 134.4967
L130.5143 134.3062
" />
<path d="M130.5143 134.3062
L130.5143 134.1634
" />
<path d="M130.5143 134.1634
L130.5619 133.9729
" />
<path d="M130.5619 133.9729
L130.6095 133.8777
" />
<path d="M130.6095 133.8777
L130.7048 133.7824
" />
<path d="M130.7048 133.7824
L130.8476 133.7348
" />
<path d="M130.8476 133.7348
L130.9429 133.7348
" />
<path d="M130.9429 133.7348
L131.0857 133.7824
" />
<path d="M131.0857 133.7824
L131.1333 133.8301
" />
<path d="M131.4667 133.7348
L132.1333 133.7348
" />
<path d="M132.1333 133.7348
L131.7048 134.7348
" />
</g><g transform="rotate(-90.000000 124.2000 79.4250)">
<text x="124.2000" y="79.9250"
textLength="4.5357" font-size="1.3333" lengthAdjust="spacingAndGlyphs"
text-anchor="middle" opacity="0" stroke-opacity="0">RISE1</text>
</g>
<g class="stroked-text"><desc>RISE1</desc>
<path d="M124.6548 80.7583
L124.1786 81.0917
" />
<path d="M124.6548 81.3298
L123.6548 81.3298
" />
<path d="M123.6548 81.3298
L123.6548 80.9488
" />
<path d="M123.6548 80.9488
L123.7024 80.8536
" />
<path d="M123.7024 80.8536
L123.7501 80.8060
" />
<path d="M123.7501 80.8060
L123.8453 80.7583
" />
<path d="M123.8453 80.7583
L123.9882 80.7583
" />
<path d="M123.9882 80.7583
L124.0834 80.8060
" />
<path d="M124.0834 80.8060
L124.1310 80.8536
" />
<path d="M124.1310 80.8536
L124.1786 80.9488
" />
<path d="M124.1786 80.9488
L124.1786 81.3298
" />
<path d="M124.6548 80.3298
L123.6548 80.3298
" />
<path d="M124.6072 79.9012
L124.6548 79.7583
" />
<path d="M124.6548 79.7583
L124.6548 79.5202
" />
<path d="M124.6548 79.5202
L124.6072 79.4250
" />
<path d="M124.6072 79.4250
L124.5596 79.3774
" />
<path d="M124.5596 79.3774
L124.4643 79.3298
" />
<path d="M124.4643 79.3298
L124.3691 79.3298
" />
<path d="M124.3691 79.3298
L124.2739 79.3774
" />
<path d="M124.2739 79.3774
L124.2262 79.4250
" />
<path d="M124.2262 79.4250
L124.1786 79.5202
" />
<path d="M124.1786 79.5202
L124.1310 79.7107
" />
<path d="M124.1310 79.7107
L124.0834 79.8060
" />
<path d="M124.0834 79.8060
L124.0358 79.8536
" />
<path d="M124.0358 79.8536
L123.9405 79.9012
" />
<path d="M123.9405 79.9012
L123.8453 79.9012
" />
<path d="M123.8453 79.9012
L123.7501 79.8536
" />
<path d="M123.7501 79.8536
L123.7024 79.8060
" />
<path d="M123.7024 79.8060
L123.6548 79.7107
" />
<path d="M123.6548 79.7107
L123.6548 79.4726
" />
<path d="M123.6548 79.4726
L123.7024 79.3298
" />
<path d="M124.1310 78.9012
L124.1310 78.5679
" />
<path d="M124.6548 78.4250
L124.6548 78.9012
" />
<path d="M124.6548 78.9012
L123.6548 78.9012
" />
<path d="M123.6548 78.9012
L123.6548 78.4250
" />
<path d="M124.6548 77.4726
L124.6548 78.0440
" />
<path d="M124.6548 77.7583
L123.6548 77.7583
" />
<path d="M123.6548 77.7583
L123.7977 77.8536
" />
<path d="M123.7977 77.8536
L123.8929 77.9488
" />
<path d="M123.8929 77.9488
L123.9405 78.0440
" />
</g></g>
<g style="fill:none; 
stroke:#000000; stroke-width:0.1200; stroke-opacity:1; 
stroke-linecap:round; stroke-linejoin:round;">
<path d="M129.5560 95.5780
L129.5560 91.5680
" />
<path d="M129.5560 95.5780
L131.5560 95.5780
" />
<path d="M131.5560 95.5780
L131.5560 91.5680
" />
<path d="M127.5000 60.3200
L131.5000 60.3200
" />
<path d="M127.5000 70.8200
L127.5000 60.3200
" />
<path d="M127.5000 70.8200
L131.6500 70.8200
" />
<path d="M132.3500 70.8200
L136.5000 70.8200
" />
<path d="M132.5000 60.3200
L136.5000 60.3200
" />
<path d="M133.0600 73.8000
L132.2000 73.8000
" />
<path d="M133.0600 73.8000
L133.0600 73.0000
" />
<path d="M136.5000 70.8200
L136.5000 60.3200
" />
<circle cx="132.0000" cy="66.3200" r="1.8000" /> 
<path d="M128.1295 152.5413
L128.1295 152.0667
" />
<path d="M129.1745 152.5413
L129.1745 152.0667
" />
<path d="M132.0960 90.8580
L132.0960 94.8680
" />
<path d="M134.0960 90.8580
L132.0960 90.8580
" />
<path d="M134.0960 90.8580
L134.0960 94.8680
" />
<circle cx="132.0000" cy="163.6800" r="1.8000" /> 
<path d="M136.5000 169.6800
L132.5000 169.6800
" />
<path d="M136.5000 159.1800
L136.5000 169.6800
" />
<path d="M136.5000 159.1800
L132.3500 159.1800
" />
<path d="M131.6500 159.1800
L127.5000 159.1800
" />
<path d="M131.5000 169.6800
L127.5000 169.6800
" />
<path d="M130.9400 156.2000
L131.8000 156.2000
" />
<path d="M130.9400 156.2000
L130.9400 157.0000
" />
<path d="M127.5000 159.1800
L127.5000 169.6800
" />
<path d="M133.5650 151.7200
L133.5650 151.5640
" />
<path d="M133.5650 154.0360
L133.5650 153.8800
" />
<path d="M133.5650 151.5645 A1.9900 1.9900 0.0 0 0 130.3327 151.7214" />
<path d="M133.0460 151.7200 A1.5000 1.5000 0.0 0 0 130.9639 151.7202" />
<path d="M130.9639 153.8798 A1.5000 1.5000 0.0 0 0 133.0460 153.8800" />
<path d="M130.3327 153.8786 A1.9900 1.9900 0.0 0 0 133.5650 154.0355" />
<path d="M127.4935 104.6623
L127.4935 104.1877
" />
<path d="M128.5385 104.6623
L128.5385 104.1877
" />
<path d="M127.7890 134.8667
L127.7890 135.3893
" />
<path d="M129.2590 134.8667
L129.2590 135.3893
" />
<path d="M133.0995 126.2300
L131.1495 126.2300
" />
<path d="M133.0995 126.2300
L135.0495 126.2300
" />
<path d="M133.0995 131.3500
L131.1495 131.3500
" />
<path d="M133.0995 131.3500
L135.0495 131.3500
" />
<path style="fill:#000000; fill-opacity:1.0000; 
stroke:#000000; stroke-width:0.1200; stroke-opacity:1; 
stroke-linecap:round; stroke-linejoin:round;fill-rule:evenodd;"
d="M 130.3995,126.3250
130.1595,125.9950
130.6395,125.9950
Z" /> 
</g>
<g style="fill:none; 
stroke:#000000; stroke-width:0.1200; stroke-opacity:1; 
stroke-linecap:round; stroke-linejoin:round;">
<path d="M136.5700 100.5200
L136.5700 95.8000
" />
<path d="M136.5700 100.5200
L135.0800 100.5200
" />
<path d="M136.5700 91.9900
L136.5700 88.9300
" />
<path d="M136.5700 88.9300
L126.8300 88.9300
" />
<path d="M133.3600 100.5200
L132.5300 100.5200
" />
<path d="M130.9100 100.5200
L130.3800 100.5200
" />
<path d="M128.0100 100.5200
L126.8300 100.5200
" />
<path d="M126.8300 91.9900
L126.8300 88.9300
" />
<path d="M126.8200 100.5200
L126.8200 95.8000
" />
<path d="M127.7890 142.9947
L127.7890 143.5173
" />
<path d="M129.2590 142.9947
L129.2590 143.5173
" />
<path d="M131.5575 163.5297
L131.5575 164.0043
" />
<path d="M132.6025 163.5297
L132.6025 164.0043
" />
<path d="M135.0650 104.5762
L135.0650 105.0988
" />
<path d="M136.5350 104.5762
L136.5350 105.0988
" />
<path d="M131.5575 64.7867
L131.5575 65.2613
" />
<path d="M132.6025 64.7867
L132.6025 65.2613
" />
<path d="M135.0613 124.2650
L134.5387 124.2650
" />
<path d="M135.0613 125.7350
L134.5387 125.7350
" />
<path d="M131.5613 133.3350
L131.0387 133.3350
" />
<path d="M131.5613 131.8650
L131.0387 131.8650
" />
<path d="M126.8200 86.0450
L126.8200 81.3250
" />
<path d="M126.8300 77.5150
L126.8300 74.4550
" />
<path d="M128.0100 86.0450
L126.8300 86.0450
" />
<path d="M130.9100 86.0450
L130.3800 86.0450
" />
<path d="M133.3600 86.0450
L132.5300 86.0450
" />
<path d="M136.5700 74.4550
L126.8300 74.4550
" />
<path d="M136.5700 77.5150
L136.5700 74.4550
" />
<path d="M136.5700 86.0450
L135.0800 86.0450
" />
<path d="M136.5700 86.0450
L136.5700 81.3250
" />
</g> 
</svg>
