<?xml version="1.0" standalone="no"?>
 <!DOCTYPE svg PUBLIC "-//W3C//DTD SVG 1.1//EN" 
 "http://www.w3.org/Graphics/SVG/1.1/DTD/svg11.dtd"> 
<svg
  xmlns:svg="http://www.w3.org/2000/svg"
  xmlns="http://www.w3.org/2000/svg"
  xmlns:xlink="http://www.w3.org/1999/xlink"
  version="1.1"
  width="297.0022mm" height="210.0072mm" viewBox="0.0000 0.0000 297.0022 210.0072">
<title>SVG Image created as MiniSlew-B_Mask.svg date 2024/09/09 04:28:58 </title>
  <desc>Image generated by PCBNEW </desc>
<g style="fill:#000000; fill-opacity:1.0000;stroke:#000000; stroke-opacity:1.0000;
stroke-linecap:round; stroke-linejoin:round;"
 transform="translate(0 0) scale(1 1)">
</g>
<g style="fill:#000000; fill-opacity:1.0000; stroke:none;">
<circle cx="114.0000" cy="53.8000" r="2.1000" /> 
<circle cx="114.0000" cy="176.3000" r="2.1000" /> 
<circle cx="112.0000" cy="163.7000" r="3.5000" /> 
</g>
<g style="fill:#000000; fill-opacity:1.0000; stroke:none;">
<circle cx="112.0000" cy="93.9000" r="4.0000" /> 
</g>
<g style="fill:#000000; fill-opacity:1.0000; stroke:none;">
<circle cx="112.0000" cy="79.4000" r="4.0000" /> 
</g>
<g style="fill:#000000; fill-opacity:1.0000; stroke:none;">
<circle cx="112.0000" cy="66.2800" r="3.5000" /> 
<path style="fill:#000000; fill-opacity:1.0000; stroke:none;fill-rule:evenodd;"
d="M 131.0350,73.7150
131.0350,71.8850
132.9650,71.8850
132.9650,73.7150
Z" /> 
</g>
<g style="fill:#000000; fill-opacity:1.0000; stroke:none;">
<circle cx="132.0000" cy="61.4000" r="1.0650" /> 
</g>
<g style="fill:#000000; fill-opacity:1.0000; stroke:none;">
<circle cx="132.0000" cy="69.7000" r="1.0650" /> 
</g>
<g style="fill:#000000; fill-opacity:1.0000; stroke:none;">
<circle cx="132.0000" cy="160.3000" r="1.0650" /> 
</g>
<g style="fill:#000000; fill-opacity:1.0000; stroke:none;">
<circle cx="132.0000" cy="168.6000" r="1.0650" /> 
<path style="fill:#000000; fill-opacity:1.0000; stroke:none;fill-rule:evenodd;"
d="M 132.9650,156.2850
132.9650,158.1150
131.0350,158.1150
131.0350,156.2850
Z" /> 
<path style="fill:#000000; fill-opacity:1.0000; stroke:none;fill-rule:evenodd;"
d="M 134.1750,151.9000
134.1750,153.7000
132.3750,153.7000
132.3750,151.9000
Z" /> 
</g>
<g style="fill:#000000; fill-opacity:1.0000; stroke:none;">
<circle cx="130.7350" cy="152.8000" r="0.9000" /> 
</g>
<g style="fill:#000000; fill-opacity:1.0000; stroke:none;">
<circle cx="134.2000" cy="101.4000" r="0.9000" /> 
</g>
<g style="fill:#000000; fill-opacity:1.0000; stroke:none;">
<circle cx="131.7000" cy="101.4000" r="0.9000" /> 
<path style="fill:#000000; fill-opacity:1.0000; stroke:none;fill-rule:evenodd;"
d="M 130.1000,100.5000
130.1000,102.3000
128.3000,102.3000
128.3000,100.5000
Z" /> 
</g>
<g style="fill:none; 
stroke:#000000; stroke-width:2.7200; stroke-opacity:1; 
stroke-linecap:round; stroke-linejoin:round;">
<path d="M136.5000 94.1600
L136.5000 93.6400
" />
<path d="M126.9000 94.1600
L126.9000 93.6400
" />
</g>
<g style="fill:#000000; fill-opacity:1.0000; stroke:none;">
<circle cx="132.2000" cy="109.3000" r="1.0000" /> 
<circle cx="132.2000" cy="106.8000" r="1.0000" /> 
<circle cx="132.2000" cy="104.3000" r="1.0000" /> 
</g>
<g style="fill:none; 
stroke:#000000; stroke-width:2.7200; stroke-opacity:1; 
stroke-linecap:round; stroke-linejoin:round;">
<path d="M126.9000 79.6850
L126.9000 79.1650
" />
<path d="M136.5000 79.6850
L136.5000 79.1650
" />
<path style="fill:#000000; fill-opacity:1.0000; stroke:none;fill-rule:evenodd;"
d="M 130.1000,86.0250
130.1000,87.8250
128.3000,87.8250
128.3000,86.0250
Z" /> 
</g>
<g style="fill:#000000; fill-opacity:1.0000; stroke:none;">
<circle cx="131.7000" cy="86.9250" r="0.9000" /> 
</g>
<g style="fill:#000000; fill-opacity:1.0000; stroke:none;">
<circle cx="134.2000" cy="86.9250" r="0.9000" /> 
<path style="fill:#000000; fill-opacity:1.0000; stroke:none;fill-rule:evenodd;"
d="M 134.0051,122.2000
134.0051,123.8000
132.4051,123.8000
132.4051,122.2000
Z" /> 
</g>
<g style="fill:#000000; fill-opacity:1.0000; stroke:none;">
<circle cx="130.7051" cy="123.0000" r="0.8000" /> 
<path style="fill:#000000; fill-opacity:1.0000; stroke:none;fill-rule:evenodd;"
d="M 129.9100,144.5000
129.9290,144.4043
129.9832,144.3232
130.0643,144.2690
130.1600,144.2500
131.3600,144.2500
131.4557,144.2690
131.5368,144.3232
131.5910,144.4043
131.6100,144.5000
131.6100,145.7000
131.5910,145.7957
131.5368,145.8768
131.4557,145.9310
131.3600,145.9500
130.1600,145.9500
130.0643,145.9310
129.9832,145.8768
129.9290,145.7957
129.9100,145.7000
Z" /> 
</g>
<g style="fill:#000000; fill-opacity:1.0000; stroke:none;">
<circle cx="133.3000" cy="145.1000" r="0.8500" /> 
</g>
<g style="fill:#000000; fill-opacity:1.0000; stroke:none;">
<circle cx="130.7600" cy="142.5600" r="0.8500" /> 
</g>
<g style="fill:#000000; fill-opacity:1.0000; stroke:none;">
<circle cx="133.3000" cy="142.5600" r="0.8500" /> 
</g>
<g style="fill:#000000; fill-opacity:1.0000; stroke:none;">
<circle cx="130.7600" cy="140.0200" r="0.8500" /> 
</g>
<g style="fill:#000000; fill-opacity:1.0000; stroke:none;">
<circle cx="133.3000" cy="140.0200" r="0.8500" /> 
</g>
<g style="fill:#000000; fill-opacity:1.0000; stroke:none;">
<circle cx="130.7600" cy="137.4800" r="0.8500" /> 
</g>
<g style="fill:#000000; fill-opacity:1.0000; stroke:none;">
<circle cx="133.3000" cy="137.4800" r="0.8500" /> 
</g>
<g style="fill:#000000; fill-opacity:1.0000; stroke:none;">
<circle cx="130.7600" cy="134.9400" r="0.8500" /> 
</g>
<g style="fill:#000000; fill-opacity:1.0000; stroke:none;">
<circle cx="133.3000" cy="134.9400" r="0.8500" /> 
<path style="fill:#000000; fill-opacity:1.0000; stroke:none;fill-rule:evenodd;"
d="M 129.9949,115.1000
129.9949,113.5000
131.5949,113.5000
131.5949,115.1000
Z" /> 
</g>
<g style="fill:#000000; fill-opacity:1.0000; stroke:none;">
<circle cx="133.2949" cy="114.3000" r="0.8000" /> 
<path style="fill:#000000; fill-opacity:1.0000; stroke:none;fill-rule:evenodd;"
d="M 135.6280,68.5680
135.6090,68.6637
135.5548,68.7448
135.4737,68.7990
135.3780,68.8180
134.8780,68.8180
134.7823,68.7990
134.7012,68.7448
134.6470,68.6637
134.6280,68.5680
134.6280,67.0680
134.6470,66.9723
134.7012,66.8912
134.7823,66.8370
134.8780,66.8180
135.3780,66.8180
135.4737,66.8370
135.5548,66.8912
135.6090,66.9723
135.6280,67.0680
Z" /> 
</g> 
</svg>
