<?xml version="1.0" standalone="no"?>
 <!DOCTYPE svg PUBLIC "-//W3C//DTD SVG 1.1//EN" 
 "http://www.w3.org/Graphics/SVG/1.1/DTD/svg11.dtd"> 
<svg
  xmlns:svg="http://www.w3.org/2000/svg"
  xmlns="http://www.w3.org/2000/svg"
  xmlns:xlink="http://www.w3.org/1999/xlink"
  version="1.1"
  width="297.0022mm" height="210.0072mm" viewBox="0.0000 0.0000 297.0022 210.0072">
<title>SVG Image created as MiniSlew-B_Silkscreen.svg date 2024/09/09 04:28:58 </title>
  <desc>Image generated by PCBNEW </desc>
<g style="fill:#000000; fill-opacity:1.0000;stroke:#000000; stroke-opacity:1.0000;
stroke-linecap:round; stroke-linejoin:round;"
 transform="translate(0 0) scale(1 1)">
</g>
<g style="fill:none; 
stroke:#000000; stroke-width:0.1500; stroke-opacity:1; 
stroke-linecap:round; stroke-linejoin:round;">
<text x="131.9551" y="119.7500"
transform="scale(-1 1) translate(-263.910226 0)"
textLength="2.2024" font-size="1.3333" lengthAdjust="spacingAndGlyphs"
text-anchor="middle" opacity="0" stroke-opacity="0">C2</text>
<g class="stroked-text"><desc>C2</desc>
<path d="M132.1218 119.6096
L132.1694 119.6572
" />
<path d="M132.1694 119.6572
L132.3123 119.7048
" />
<path d="M132.3123 119.7048
L132.4075 119.7048
" />
<path d="M132.4075 119.7048
L132.5503 119.6572
" />
<path d="M132.5503 119.6572
L132.6456 119.5620
" />
<path d="M132.6456 119.5620
L132.6932 119.4667
" />
<path d="M132.6932 119.4667
L132.7408 119.2762
" />
<path d="M132.7408 119.2762
L132.7408 119.1334
" />
<path d="M132.7408 119.1334
L132.6932 118.9429
" />
<path d="M132.6932 118.9429
L132.6456 118.8477
" />
<path d="M132.6456 118.8477
L132.5503 118.7524
" />
<path d="M132.5503 118.7524
L132.4075 118.7048
" />
<path d="M132.4075 118.7048
L132.3123 118.7048
" />
<path d="M132.3123 118.7048
L132.1694 118.7524
" />
<path d="M132.1694 118.7524
L132.1218 118.8001
" />
<path d="M131.7408 118.8001
L131.6932 118.7524
" />
<path d="M131.6932 118.7524
L131.5980 118.7048
" />
<path d="M131.5980 118.7048
L131.3599 118.7048
" />
<path d="M131.3599 118.7048
L131.2646 118.7524
" />
<path d="M131.2646 118.7524
L131.2170 118.8001
" />
<path d="M131.2170 118.8001
L131.1694 118.8953
" />
<path d="M131.1694 118.8953
L131.1694 118.9905
" />
<path d="M131.1694 118.9905
L131.2170 119.1334
" />
<path d="M131.2170 119.1334
L131.7884 119.7048
" />
<path d="M131.7884 119.7048
L131.1694 119.7048
" />
</g><text x="131.9040" y="153.1280"
transform="scale(-1 1) translate(-263.808000 0)"
textLength="1.9643" font-size="1.3333" lengthAdjust="spacingAndGlyphs"
text-anchor="middle" opacity="0" stroke-opacity="0">J4</text>
<g class="stroked-text"><desc>J4</desc>
<path d="M132.2373 152.0828
L132.2373 152.7971
" />
<path d="M132.2373 152.7971
L132.2850 152.9400
" />
<path d="M132.2850 152.9400
L132.3802 153.0352
" />
<path d="M132.3802 153.0352
L132.5230 153.0828
" />
<path d="M132.5230 153.0828
L132.6183 153.0828
" />
<path d="M131.3326 152.4162
L131.3326 153.0828
" />
<path d="M131.5707 152.0352
L131.8088 152.7495
" />
<path d="M131.8088 152.7495
L131.1897 152.7495
" />
</g><text x="132.0449" y="118.5500"
transform="scale(-1 1) translate(-264.089776 0)"
textLength="2.2024" font-size="1.3333" lengthAdjust="spacingAndGlyphs"
text-anchor="middle" opacity="0" stroke-opacity="0">C3</text>
<g class="stroked-text"><desc>C3</desc>
<path d="M132.2116 118.4096
L132.2592 118.4572
" />
<path d="M132.2592 118.4572
L132.4020 118.5048
" />
<path d="M132.4020 118.5048
L132.4973 118.5048
" />
<path d="M132.4973 118.5048
L132.6401 118.4572
" />
<path d="M132.6401 118.4572
L132.7354 118.3620
" />
<path d="M132.7354 118.3620
L132.7830 118.2667
" />
<path d="M132.7830 118.2667
L132.8306 118.0762
" />
<path d="M132.8306 118.0762
L132.8306 117.9334
" />
<path d="M132.8306 117.9334
L132.7830 117.7429
" />
<path d="M132.7830 117.7429
L132.7354 117.6477
" />
<path d="M132.7354 117.6477
L132.6401 117.5524
" />
<path d="M132.6401 117.5524
L132.4973 117.5048
" />
<path d="M132.4973 117.5048
L132.4020 117.5048
" />
<path d="M132.4020 117.5048
L132.2592 117.5524
" />
<path d="M132.2592 117.5524
L132.2116 117.6001
" />
<path d="M131.8782 117.5048
L131.2592 117.5048
" />
<path d="M131.2592 117.5048
L131.5925 117.8858
" />
<path d="M131.5925 117.8858
L131.4496 117.8858
" />
<path d="M131.4496 117.8858
L131.3544 117.9334
" />
<path d="M131.3544 117.9334
L131.3068 117.9810
" />
<path d="M131.3068 117.9810
L131.2592 118.0762
" />
<path d="M131.2592 118.0762
L131.2592 118.3143
" />
<path d="M131.2592 118.3143
L131.3068 118.4096
" />
<path d="M131.3068 118.4096
L131.3544 118.4572
" />
<path d="M131.3544 118.4572
L131.4496 118.5048
" />
<path d="M131.4496 118.5048
L131.7354 118.5048
" />
<path d="M131.7354 118.5048
L131.8306 118.4572
" />
<path d="M131.8306 118.4572
L131.8782 118.4096
" />
</g><text x="135.1280" y="65.7780"
transform="scale(-1 1) translate(-270.256000 0)"
textLength="2.9643" font-size="1.3333" lengthAdjust="spacingAndGlyphs"
text-anchor="middle" opacity="0" stroke-opacity="0">TP1</text>
<g class="stroked-text"><desc>TP1</desc>
<path d="M136.3899 64.7328
L135.8185 64.7328
" />
<path d="M136.1042 65.7328
L136.1042 64.7328
" />
<path d="M135.4851 65.7328
L135.4851 64.7328
" />
<path d="M135.4851 64.7328
L135.1042 64.7328
" />
<path d="M135.1042 64.7328
L135.0090 64.7804
" />
<path d="M135.0090 64.7804
L134.9613 64.8281
" />
<path d="M134.9613 64.8281
L134.9137 64.9233
" />
<path d="M134.9137 64.9233
L134.9137 65.0662
" />
<path d="M134.9137 65.0662
L134.9613 65.1614
" />
<path d="M134.9613 65.1614
L135.0090 65.2090
" />
<path d="M135.0090 65.2090
L135.1042 65.2566
" />
<path d="M135.1042 65.2566
L135.4851 65.2566
" />
<path d="M133.9613 65.7328
L134.5328 65.7328
" />
<path d="M134.2470 65.7328
L134.2470 64.7328
" />
<path d="M134.2470 64.7328
L134.3423 64.8757
" />
<path d="M134.3423 64.8757
L134.4375 64.9709
" />
<path d="M134.4375 64.9709
L134.5328 65.0185
" />
</g></g>
<g style="fill:none; 
stroke:#000000; stroke-width:0.1200; stroke-opacity:1; 
stroke-linecap:round; stroke-linejoin:round;">
<path d="M131.9151 125.5800
L131.9151 120.4200
" />
<path d="M131.9551 125.5800
L131.9551 120.4200
" />
<path d="M131.8751 125.5790
L131.8751 120.4210
" />
<path d="M131.8351 125.5780
L131.8351 120.4220
" />
<path d="M131.7951 125.5760
L131.7951 120.4240
" />
<path d="M131.7551 125.5730
L131.7551 120.4270
" />
<path d="M131.7151 125.5690
L131.7151 124.0400
" />
<path d="M131.6751 125.5650
L131.6751 124.0400
" />
<path d="M131.6351 125.5610
L131.6351 124.0400
" />
<path d="M131.5951 125.5560
L131.5951 124.0400
" />
<path d="M131.5551 125.5500
L131.5551 124.0400
" />
<path d="M131.5151 125.5430
L131.5151 124.0400
" />
<path d="M131.4751 125.5360
L131.4751 124.0400
" />
<path d="M131.4351 125.5280
L131.4351 124.0400
" />
<path d="M131.3951 125.5200
L131.3951 124.0400
" />
<path d="M131.3551 125.5110
L131.3551 124.0400
" />
<path d="M131.3151 125.5010
L131.3151 124.0400
" />
<path d="M131.2751 125.4910
L131.2751 124.0400
" />
<path d="M131.2341 125.4800
L131.2341 124.0400
" />
<path d="M131.1941 125.4680
L131.1941 124.0400
" />
<path d="M131.1541 125.4550
L131.1541 124.0400
" />
<path d="M131.1141 125.4420
L131.1141 124.0400
" />
<path d="M131.0741 125.4280
L131.0741 124.0400
" />
<path d="M131.0341 125.4140
L131.0341 124.0400
" />
<path d="M130.9941 125.3980
L130.9941 124.0400
" />
<path d="M130.9541 125.3820
L130.9541 124.0400
" />
<path d="M130.9141 125.3650
L130.9141 124.0400
" />
<path d="M130.8741 125.3480
L130.8741 124.0400
" />
<path d="M130.8341 125.3290
L130.8341 124.0400
" />
<path d="M130.7941 125.3100
L130.7941 124.0400
" />
<path d="M130.7541 125.2900
L130.7541 124.0400
" />
<path d="M130.7141 125.2680
L130.7141 124.0400
" />
<path d="M130.6741 125.2470
L130.6741 124.0400
" />
<path d="M130.6341 125.2240
L130.6341 124.0400
" />
<path d="M130.5941 125.2000
L130.5941 124.0400
" />
<path d="M130.5541 125.1750
L130.5541 124.0400
" />
<path d="M130.5141 125.1490
L130.5141 124.0400
" />
<path d="M130.4741 125.1220
L130.4741 124.0400
" />
<path d="M130.4341 125.0950
L130.4341 124.0400
" />
<path d="M130.3941 125.0650
L130.3941 124.0400
" />
<path d="M130.3541 125.0350
L130.3541 124.0400
" />
<path d="M130.3141 125.0040
L130.3141 124.0400
" />
<path d="M130.2741 124.9710
L130.2741 124.0400
" />
<path d="M130.2341 124.9370
L130.2341 124.0400
" />
<path d="M130.1941 124.9010
L130.1941 124.0400
" />
<path d="M130.1541 124.8640
L130.1541 124.0400
" />
<path d="M130.1141 124.8260
L130.1141 124.0400
" />
<path d="M130.0741 124.7850
L130.0741 124.0400
" />
<path d="M130.0341 124.7430
L130.0341 124.0400
" />
<path d="M129.9941 124.6990
L129.9941 124.0400
" />
<path d="M129.9541 124.6530
L129.9541 124.0400
" />
<path d="M129.9141 124.6050
L129.9141 124.0400
" />
<path d="M129.8741 124.5540
L129.8741 124.0400
" />
<path d="M129.8341 124.5000
L129.8341 124.0400
" />
<path d="M129.7941 124.4430
L129.7941 124.0400
" />
<path d="M129.7541 124.3830
L129.7541 124.0400
" />
<path d="M129.7141 124.3190
L129.7141 124.0400
" />
<path d="M129.6741 124.2510
L129.6741 124.0400
" />
<path d="M129.6341 124.1780
L129.6341 121.8220
" />
<path d="M129.5941 124.0980
L129.5941 121.9020
" />
<path d="M129.5541 124.0110
L129.5541 121.9890
" />
<path d="M129.5141 123.9150
L129.5141 122.0850
" />
<path d="M129.4741 123.8050
L129.4741 122.1950
" />
<path d="M129.4341 123.6770
L129.4341 122.3230
" />
<path d="M129.3941 123.5180
L129.3941 122.4820
" />
<path d="M129.3541 123.2840
L129.3541 122.7160
" />
<path d="M129.6741 121.9600
L129.6741 121.7490
" />
<path d="M129.7141 121.9600
L129.7141 121.6810
" />
<path d="M129.7541 121.9600
L129.7541 121.6170
" />
<path d="M129.7941 121.9600
L129.7941 121.5570
" />
<path d="M129.8341 121.9600
L129.8341 121.5000
" />
<path d="M129.8741 121.9600
L129.8741 121.4460
" />
<path d="M129.9141 121.9600
L129.9141 121.3950
" />
<path d="M129.9541 121.9600
L129.9541 121.3470
" />
<path d="M129.9941 121.9600
L129.9941 121.3010
" />
<path d="M130.0341 121.9600
L130.0341 121.2570
" />
<path d="M130.0741 121.9600
L130.0741 121.2150
" />
<path d="M130.1141 121.9600
L130.1141 121.1740
" />
<path d="M130.1541 121.9600
L130.1541 121.1360
" />
<path d="M130.1941 121.9600
L130.1941 121.0990
" />
<path d="M130.2341 121.9600
L130.2341 121.0630
" />
<path d="M130.2741 121.9600
L130.2741 121.0290
" />
<path d="M130.3141 121.9600
L130.3141 120.9960
" />
<path d="M130.3541 121.9600
L130.3541 120.9650
" />
<path d="M130.3941 121.9600
L130.3941 120.9350
" />
<path d="M130.4341 121.9600
L130.4341 120.9050
" />
<path d="M130.4741 121.9600
L130.4741 120.8780
" />
<path d="M130.5141 121.9600
L130.5141 120.8510
" />
<path d="M130.5541 121.9600
L130.5541 120.8250
" />
<path d="M130.5941 121.9600
L130.5941 120.8000
" />
<path d="M130.6341 121.9600
L130.6341 120.7760
" />
<path d="M130.6741 121.9600
L130.6741 120.7530
" />
<path d="M130.7141 121.9600
L130.7141 120.7320
" />
<path d="M130.7541 121.9600
L130.7541 120.7100
" />
<path d="M130.7941 121.9600
L130.7941 120.6900
" />
<path d="M130.8341 121.9600
L130.8341 120.6710
" />
<path d="M130.8741 121.9600
L130.8741 120.6520
" />
<path d="M130.9141 121.9600
L130.9141 120.6350
" />
<path d="M130.9541 121.9600
L130.9541 120.6180
" />
<path d="M130.9941 121.9600
L130.9941 120.6020
" />
<path d="M131.0341 121.9600
L131.0341 120.5860
" />
<path d="M131.0741 121.9600
L131.0741 120.5720
" />
<path d="M131.1141 121.9600
L131.1141 120.5580
" />
<path d="M131.1541 121.9600
L131.1541 120.5450
" />
<path d="M131.1941 121.9600
L131.1941 120.5320
" />
<path d="M131.2341 121.9600
L131.2341 120.5200
" />
<path d="M131.2751 121.9600
L131.2751 120.5090
" />
<path d="M131.3151 121.9600
L131.3151 120.4990
" />
<path d="M131.3551 121.9600
L131.3551 120.4890
" />
<path d="M131.3951 121.9600
L131.3951 120.4800
" />
<path d="M131.4351 121.9600
L131.4351 120.4720
" />
<path d="M131.4751 121.9600
L131.4751 120.4640
" />
<path d="M131.5151 121.9600
L131.5151 120.4570
" />
<path d="M131.5551 121.9600
L131.5551 120.4500
" />
<path d="M131.5951 121.9600
L131.5951 120.4440
" />
<path d="M131.6351 121.9600
L131.6351 120.4390
" />
<path d="M131.6751 121.9600
L131.6751 120.4350
" />
<path d="M131.7151 121.9600
L131.7151 120.4310
" />
<path d="M134.5099 121.7750
L134.5099 121.2750
" />
<path d="M134.2599 121.5250
L134.7599 121.5250
" />
<circle cx="131.9551" cy="123.0000" r="2.6200" /> 
<path d="M126.0800 144.6000
L126.0800 145.6000
" />
<path d="M126.0800 145.6000
L127.0800 145.1000
" />
<path d="M127.0800 145.1000
L126.0800 144.6000
" />
<path d="M127.4700 129.7300
L136.5900 129.7300
" />
<path d="M127.4700 137.9700
L128.7800 137.9700
" />
<path d="M127.4700 150.3100
L127.4700 129.7300
" />
<path d="M128.7800 131.0300
L135.2800 131.0300
" />
<path d="M128.7800 137.9700
L128.7800 131.0300
" />
</g>
<g style="fill:#000000; fill-opacity:1.0000; stroke:none;">
<circle cx="128.7800" cy="137.9700" r="0.0600" /> 
</g>
<g style="fill:none; 
stroke:#000000; stroke-width:0.1200; stroke-opacity:1; 
stroke-linecap:round; stroke-linejoin:round;">
<path d="M128.7800 142.0700
L127.4700 142.0700
" />
<path d="M128.7800 149.0100
L128.7800 142.0700
" />
<path d="M135.2800 131.0300
L135.2800 149.0100
" />
<path d="M135.2800 149.0100
L128.7800 149.0100
" />
<path d="M136.5900 129.7300
L136.5900 150.3100
" />
<path d="M136.5900 150.3100
L127.4700 150.3100
" />
<path d="M129.7401 115.7750
L129.2401 115.7750
" />
<path d="M129.4901 115.5250
L129.4901 116.0250
" />
<path d="M132.2849 115.3400
L132.2849 116.8690
" />
<path d="M132.3249 115.3400
L132.3249 116.8650
" />
<path d="M132.3649 115.3400
L132.3649 116.8610
" />
<path d="M132.4049 115.3400
L132.4049 116.8560
" />
<path d="M132.4449 115.3400
L132.4449 116.8500
" />
<path d="M132.4849 115.3400
L132.4849 116.8430
" />
<path d="M132.5249 115.3400
L132.5249 116.8360
" />
<path d="M132.5649 115.3400
L132.5649 116.8280
" />
<path d="M132.6049 115.3400
L132.6049 116.8200
" />
<path d="M132.6449 115.3400
L132.6449 116.8110
" />
<path d="M132.6849 115.3400
L132.6849 116.8010
" />
<path d="M132.7249 115.3400
L132.7249 116.7910
" />
<path d="M132.7659 115.3400
L132.7659 116.7800
" />
<path d="M132.8059 115.3400
L132.8059 116.7680
" />
<path d="M132.8459 115.3400
L132.8459 116.7550
" />
<path d="M132.8859 115.3400
L132.8859 116.7420
" />
<path d="M132.9259 115.3400
L132.9259 116.7280
" />
<path d="M132.9659 115.3400
L132.9659 116.7140
" />
<path d="M133.0059 115.3400
L133.0059 116.6980
" />
<path d="M133.0459 115.3400
L133.0459 116.6820
" />
<path d="M133.0859 115.3400
L133.0859 116.6650
" />
<path d="M133.1259 115.3400
L133.1259 116.6480
" />
<path d="M133.1659 115.3400
L133.1659 116.6290
" />
<path d="M133.2059 115.3400
L133.2059 116.6100
" />
<path d="M133.2459 115.3400
L133.2459 116.5900
" />
<path d="M133.2859 115.3400
L133.2859 116.5680
" />
<path d="M133.3259 115.3400
L133.3259 116.5470
" />
<path d="M133.3659 115.3400
L133.3659 116.5240
" />
<path d="M133.4059 115.3400
L133.4059 116.5000
" />
<path d="M133.4459 115.3400
L133.4459 116.4750
" />
<path d="M133.4859 115.3400
L133.4859 116.4490
" />
<path d="M133.5259 115.3400
L133.5259 116.4220
" />
<path d="M133.5659 115.3400
L133.5659 116.3950
" />
<path d="M133.6059 115.3400
L133.6059 116.3650
" />
<path d="M133.6459 115.3400
L133.6459 116.3350
" />
<path d="M133.6859 115.3400
L133.6859 116.3040
" />
<path d="M133.7259 115.3400
L133.7259 116.2710
" />
<path d="M133.7659 115.3400
L133.7659 116.2370
" />
<path d="M133.8059 115.3400
L133.8059 116.2010
" />
<path d="M133.8459 115.3400
L133.8459 116.1640
" />
<path d="M133.8859 115.3400
L133.8859 116.1260
" />
<path d="M133.9259 115.3400
L133.9259 116.0850
" />
<path d="M133.9659 115.3400
L133.9659 116.0430
" />
<path d="M134.0059 115.3400
L134.0059 115.9990
" />
<path d="M134.0459 115.3400
L134.0459 115.9530
" />
<path d="M134.0859 115.3400
L134.0859 115.9050
" />
<path d="M134.1259 115.3400
L134.1259 115.8540
" />
<path d="M134.1659 115.3400
L134.1659 115.8000
" />
<path d="M134.2059 115.3400
L134.2059 115.7430
" />
<path d="M134.2459 115.3400
L134.2459 115.6830
" />
<path d="M134.2859 115.3400
L134.2859 115.6190
" />
<path d="M134.3259 115.3400
L134.3259 115.5510
" />
<path d="M134.6459 114.0160
L134.6459 114.5840
" />
<path d="M134.6059 113.7820
L134.6059 114.8180
" />
<path d="M134.5659 113.6230
L134.5659 114.9770
" />
<path d="M134.5259 113.4950
L134.5259 115.1050
" />
<path d="M134.4859 113.3850
L134.4859 115.2150
" />
<path d="M134.4459 113.2890
L134.4459 115.3110
" />
<path d="M134.4059 113.2020
L134.4059 115.3980
" />
<path d="M134.3659 113.1220
L134.3659 115.4780
" />
<path d="M134.3259 113.0490
L134.3259 113.2600
" />
<path d="M134.2859 112.9810
L134.2859 113.2600
" />
<path d="M134.2459 112.9170
L134.2459 113.2600
" />
<path d="M134.2059 112.8570
L134.2059 113.2600
" />
<path d="M134.1659 112.8000
L134.1659 113.2600
" />
<path d="M134.1259 112.7460
L134.1259 113.2600
" />
<path d="M134.0859 112.6950
L134.0859 113.2600
" />
<path d="M134.0459 112.6470
L134.0459 113.2600
" />
<path d="M134.0059 112.6010
L134.0059 113.2600
" />
<path d="M133.9659 112.5570
L133.9659 113.2600
" />
<path d="M133.9259 112.5150
L133.9259 113.2600
" />
<path d="M133.8859 112.4740
L133.8859 113.2600
" />
<path d="M133.8459 112.4360
L133.8459 113.2600
" />
<path d="M133.8059 112.3990
L133.8059 113.2600
" />
<path d="M133.7659 112.3630
L133.7659 113.2600
" />
<path d="M133.7259 112.3290
L133.7259 113.2600
" />
<path d="M133.6859 112.2960
L133.6859 113.2600
" />
<path d="M133.6459 112.2650
L133.6459 113.2600
" />
<path d="M133.6059 112.2350
L133.6059 113.2600
" />
<path d="M133.5659 112.2050
L133.5659 113.2600
" />
<path d="M133.5259 112.1780
L133.5259 113.2600
" />
<path d="M133.4859 112.1510
L133.4859 113.2600
" />
<path d="M133.4459 112.1250
L133.4459 113.2600
" />
<path d="M133.4059 112.1000
L133.4059 113.2600
" />
<path d="M133.3659 112.0760
L133.3659 113.2600
" />
<path d="M133.3259 112.0530
L133.3259 113.2600
" />
<path d="M133.2859 112.0320
L133.2859 113.2600
" />
<path d="M133.2459 112.0100
L133.2459 113.2600
" />
<path d="M133.2059 111.9900
L133.2059 113.2600
" />
<path d="M133.1659 111.9710
L133.1659 113.2600
" />
<path d="M133.1259 111.9520
L133.1259 113.2600
" />
<path d="M133.0859 111.9350
L133.0859 113.2600
" />
<path d="M133.0459 111.9180
L133.0459 113.2600
" />
<path d="M133.0059 111.9020
L133.0059 113.2600
" />
<path d="M132.9659 111.8860
L132.9659 113.2600
" />
<path d="M132.9259 111.8720
L132.9259 113.2600
" />
<path d="M132.8859 111.8580
L132.8859 113.2600
" />
<path d="M132.8459 111.8450
L132.8459 113.2600
" />
<path d="M132.8059 111.8320
L132.8059 113.2600
" />
<path d="M132.7659 111.8200
L132.7659 113.2600
" />
<path d="M132.7249 111.8090
L132.7249 113.2600
" />
<path d="M132.6849 111.7990
L132.6849 113.2600
" />
<path d="M132.6449 111.7890
L132.6449 113.2600
" />
<path d="M132.6049 111.7800
L132.6049 113.2600
" />
<path d="M132.5649 111.7720
L132.5649 113.2600
" />
<path d="M132.5249 111.7640
L132.5249 113.2600
" />
<path d="M132.4849 111.7570
L132.4849 113.2600
" />
<path d="M132.4449 111.7500
L132.4449 113.2600
" />
<path d="M132.4049 111.7440
L132.4049 113.2600
" />
<path d="M132.3649 111.7390
L132.3649 113.2600
" />
<path d="M132.3249 111.7350
L132.3249 113.2600
" />
<path d="M132.2849 111.7310
L132.2849 113.2600
" />
<path d="M132.2449 111.7270
L132.2449 116.8730
" />
<path d="M132.2049 111.7240
L132.2049 116.8760
" />
<path d="M132.1649 111.7220
L132.1649 116.8780
" />
<path d="M132.1249 111.7210
L132.1249 116.8790
" />
<path d="M132.0449 111.7200
L132.0449 116.8800
" />
<path d="M132.0849 111.7200
L132.0849 116.8800
" />
<circle cx="132.0449" cy="114.3000" r="2.6200" /> 
</g> 
</svg>
