<?xml version="1.0" standalone="no"?>
 <!DOCTYPE svg PUBLIC "-//W3C//DTD SVG 1.1//EN" 
 "http://www.w3.org/Graphics/SVG/1.1/DTD/svg11.dtd"> 
<svg
  xmlns:svg="http://www.w3.org/2000/svg"
  xmlns="http://www.w3.org/2000/svg"
  xmlns:xlink="http://www.w3.org/1999/xlink"
  version="1.1"
  width="297.0022mm" height="210.0072mm" viewBox="0.0000 0.0000 297.0022 210.0072">
<title>SVG Image created as MiniSlew-F_Cu.svg date 2024/09/09 04:28:58 </title>
  <desc>Image generated by PCBNEW </desc>
<g style="fill:#000000; fill-opacity:1.0000;stroke:#000000; stroke-opacity:1.0000;
stroke-linecap:round; stroke-linejoin:round;"
 transform="translate(0 0) scale(1 1)">
</g>
<g style="fill:#000000; fill-opacity:1.0000; stroke:none;">
<circle cx="114.0000" cy="53.8000" r="2.1000" /> 
<circle cx="114.0000" cy="176.3000" r="2.1000" /> 
<circle cx="112.0000" cy="163.7000" r="3.5000" /> 
</g>
<g style="fill:#000000; fill-opacity:1.0000; stroke:none;">
<circle cx="112.0000" cy="93.9000" r="4.0000" /> 
</g>
<g style="fill:#000000; fill-opacity:1.0000; stroke:none;">
<circle cx="112.0000" cy="79.4000" r="4.0000" /> 
</g>
<g style="fill:#000000; fill-opacity:1.0000; stroke:none;">
<circle cx="112.0000" cy="66.2800" r="3.5000" /> 
<path style="fill:#000000; fill-opacity:1.0000; stroke:none;fill-rule:evenodd;"
d="M 130.1810,95.3180
130.0949,95.3009
130.0219,95.2521
129.9731,95.1791
129.9560,95.0930
129.9560,94.6430
129.9731,94.5569
130.0219,94.4839
130.0949,94.4351
130.1810,94.4180
130.9310,94.4180
131.0171,94.4351
131.0901,94.4839
131.1389,94.5569
131.1560,94.6430
131.1560,95.0930
131.1389,95.1791
131.0901,95.2521
131.0171,95.3009
130.9310,95.3180
Z" /> 
<path style="fill:#000000; fill-opacity:1.0000; stroke:none;fill-rule:evenodd;"
d="M 130.1810,92.0180
130.0949,92.0009
130.0219,91.9521
129.9731,91.8791
129.9560,91.7930
129.9560,91.3430
129.9731,91.2569
130.0219,91.1839
130.0949,91.1351
130.1810,91.1180
130.9310,91.1180
131.0171,91.1351
131.0901,91.1839
131.1389,91.2569
131.1560,91.3430
131.1560,91.7930
131.1389,91.8791
131.0901,91.9521
131.0171,92.0009
130.9310,92.0180
Z" /> 
<path style="fill:#000000; fill-opacity:1.0000; stroke:none;fill-rule:evenodd;"
d="M 131.0350,73.7150
131.0350,71.8850
132.9650,71.8850
132.9650,73.7150
Z" /> 
</g>
<g style="fill:#000000; fill-opacity:1.0000; stroke:none;">
<circle cx="132.0000" cy="61.4000" r="1.0650" /> 
</g>
<g style="fill:#000000; fill-opacity:1.0000; stroke:none;">
<circle cx="132.0000" cy="69.7000" r="1.0650" /> 
<path style="fill:#000000; fill-opacity:1.0000; stroke:none;fill-rule:evenodd;"
d="M 128.3770,153.5290
128.3005,153.5138
128.2356,153.4704
128.1922,153.4055
128.1770,153.3290
128.1770,152.9290
128.1922,152.8525
128.2356,152.7876
128.3005,152.7442
128.3770,152.7290
128.9270,152.7290
129.0035,152.7442
129.0684,152.7876
129.1118,152.8525
129.1270,152.9290
129.1270,153.3290
129.1118,153.4055
129.0684,153.4704
129.0035,153.5138
128.9270,153.5290
Z" /> 
<path style="fill:#000000; fill-opacity:1.0000; stroke:none;fill-rule:evenodd;"
d="M 128.3770,151.8790
128.3005,151.8638
128.2356,151.8204
128.1922,151.7555
128.1770,151.6790
128.1770,151.2790
128.1922,151.2025
128.2356,151.1376
128.3005,151.0942
128.3770,151.0790
128.9270,151.0790
129.0035,151.0942
129.0684,151.1376
129.1118,151.2025
129.1270,151.2790
129.1270,151.6790
129.1118,151.7555
129.0684,151.8204
129.0035,151.8638
128.9270,151.8790
Z" /> 
<path style="fill:#000000; fill-opacity:1.0000; stroke:none;fill-rule:evenodd;"
d="M 133.4710,91.1180
133.5571,91.1351
133.6301,91.1839
133.6789,91.2569
133.6960,91.3430
133.6960,91.7930
133.6789,91.8791
133.6301,91.9521
133.5571,92.0009
133.4710,92.0180
132.7210,92.0180
132.6349,92.0009
132.5619,91.9521
132.5131,91.8791
132.4960,91.7930
132.4960,91.3430
132.5131,91.2569
132.5619,91.1839
132.6349,91.1351
132.7210,91.1180
Z" /> 
<path style="fill:#000000; fill-opacity:1.0000; stroke:none;fill-rule:evenodd;"
d="M 133.4710,94.4180
133.5571,94.4351
133.6301,94.4839
133.6789,94.5569
133.6960,94.6430
133.6960,95.0930
133.6789,95.1791
133.6301,95.2521
133.5571,95.3009
133.4710,95.3180
132.7210,95.3180
132.6349,95.3009
132.5619,95.2521
132.5131,95.1791
132.4960,95.0930
132.4960,94.6430
132.5131,94.5569
132.5619,94.4839
132.6349,94.4351
132.7210,94.4180
Z" /> 
</g>
<g style="fill:#000000; fill-opacity:1.0000; stroke:none;">
<circle cx="132.0000" cy="160.3000" r="1.0650" /> 
</g>
<g style="fill:#000000; fill-opacity:1.0000; stroke:none;">
<circle cx="132.0000" cy="168.6000" r="1.0650" /> 
<path style="fill:#000000; fill-opacity:1.0000; stroke:none;fill-rule:evenodd;"
d="M 132.9650,156.2850
132.9650,158.1150
131.0350,158.1150
131.0350,156.2850
Z" /> 
<path style="fill:#000000; fill-opacity:1.0000; stroke:none;fill-rule:evenodd;"
d="M 134.1750,151.9000
134.1750,153.7000
132.3750,153.7000
132.3750,151.9000
Z" /> 
</g>
<g style="fill:#000000; fill-opacity:1.0000; stroke:none;">
<circle cx="130.7350" cy="152.8000" r="0.9000" /> 
<path style="fill:#000000; fill-opacity:1.0000; stroke:none;fill-rule:evenodd;"
d="M 127.7410,105.6500
127.6645,105.6348
127.5996,105.5914
127.5562,105.5265
127.5410,105.4500
127.5410,105.0500
127.5562,104.9735
127.5996,104.9086
127.6645,104.8652
127.7410,104.8500
128.2910,104.8500
128.3675,104.8652
128.4324,104.9086
128.4758,104.9735
128.4910,105.0500
128.4910,105.4500
128.4758,105.5265
128.4324,105.5914
128.3675,105.6348
128.2910,105.6500
Z" /> 
<path style="fill:#000000; fill-opacity:1.0000; stroke:none;fill-rule:evenodd;"
d="M 127.7410,104.0000
127.6645,103.9848
127.5996,103.9414
127.5562,103.8765
127.5410,103.8000
127.5410,103.4000
127.5562,103.3235
127.5996,103.2586
127.6645,103.2152
127.7410,103.2000
128.2910,103.2000
128.3675,103.2152
128.4324,103.2586
128.4758,103.3235
128.4910,103.4000
128.4910,103.8000
128.4758,103.8765
128.4324,103.9414
128.3675,103.9848
128.2910,104.0000
Z" /> 
<path style="fill:#000000; fill-opacity:1.0000; stroke:none;fill-rule:evenodd;"
d="M 128.9990,133.5030
129.0947,133.5220
129.1758,133.5762
129.2300,133.6573
129.2490,133.7530
129.2490,134.4280
129.2300,134.5237
129.1758,134.6048
129.0947,134.6590
128.9990,134.6780
128.0490,134.6780
127.9533,134.6590
127.8722,134.6048
127.8180,134.5237
127.7990,134.4280
127.7990,133.7530
127.8180,133.6573
127.8722,133.5762
127.9533,133.5220
128.0490,133.5030
Z" /> 
<path style="fill:#000000; fill-opacity:1.0000; stroke:none;fill-rule:evenodd;"
d="M 128.9990,135.5780
129.0947,135.5970
129.1758,135.6512
129.2300,135.7323
129.2490,135.8280
129.2490,136.5030
129.2300,136.5987
129.1758,136.6798
129.0947,136.7340
128.9990,136.7530
128.0490,136.7530
127.9533,136.7340
127.8722,136.6798
127.8180,136.5987
127.7990,136.5030
127.7990,135.8280
127.8180,135.7323
127.8722,135.6512
127.9533,135.5970
128.0490,135.5780
Z" /> 
<path style="fill:#000000; fill-opacity:1.0000; stroke:none;fill-rule:evenodd;"
d="M 129.6495,126.7350
129.6609,126.6776
129.6934,126.6289
129.7421,126.5964
129.7995,126.5850
131.4495,126.5850
131.5069,126.5964
131.5556,126.6289
131.5881,126.6776
131.5995,126.7350
131.5995,127.0350
131.5881,127.0924
131.5556,127.1411
131.5069,127.1736
131.4495,127.1850
129.7995,127.1850
129.7421,127.1736
129.6934,127.1411
129.6609,127.0924
129.6495,127.0350
Z" /> 
<path style="fill:#000000; fill-opacity:1.0000; stroke:none;fill-rule:evenodd;"
d="M 129.6495,128.0050
129.6609,127.9476
129.6934,127.8989
129.7421,127.8664
129.7995,127.8550
131.4495,127.8550
131.5069,127.8664
131.5556,127.8989
131.5881,127.9476
131.5995,128.0050
131.5995,128.3050
131.5881,128.3624
131.5556,128.4111
131.5069,128.4436
131.4495,128.4550
129.7995,128.4550
129.7421,128.4436
129.6934,128.4111
129.6609,128.3624
129.6495,128.3050
Z" /> 
<path style="fill:#000000; fill-opacity:1.0000; stroke:none;fill-rule:evenodd;"
d="M 129.6495,129.2750
129.6609,129.2176
129.6934,129.1689
129.7421,129.1364
129.7995,129.1250
131.4495,129.1250
131.5069,129.1364
131.5556,129.1689
131.5881,129.2176
131.5995,129.2750
131.5995,129.5750
131.5881,129.6324
131.5556,129.6811
131.5069,129.7136
131.4495,129.7250
129.7995,129.7250
129.7421,129.7136
129.6934,129.6811
129.6609,129.6324
129.6495,129.5750
Z" /> 
<path style="fill:#000000; fill-opacity:1.0000; stroke:none;fill-rule:evenodd;"
d="M 129.6495,130.5450
129.6609,130.4876
129.6934,130.4389
129.7421,130.4064
129.7995,130.3950
131.4495,130.3950
131.5069,130.4064
131.5556,130.4389
131.5881,130.4876
131.5995,130.5450
131.5995,130.8450
131.5881,130.9024
131.5556,130.9511
131.5069,130.9836
131.4495,130.9950
129.7995,130.9950
129.7421,130.9836
129.6934,130.9511
129.6609,130.9024
129.6495,130.8450
Z" /> 
<path style="fill:#000000; fill-opacity:1.0000; stroke:none;fill-rule:evenodd;"
d="M 134.5995,130.5450
134.6109,130.4876
134.6434,130.4389
134.6921,130.4064
134.7495,130.3950
136.3995,130.3950
136.4569,130.4064
136.5056,130.4389
136.5381,130.4876
136.5495,130.5450
136.5495,130.8450
136.5381,130.9024
136.5056,130.9511
136.4569,130.9836
136.3995,130.9950
134.7495,130.9950
134.6921,130.9836
134.6434,130.9511
134.6109,130.9024
134.5995,130.8450
Z" /> 
<path style="fill:#000000; fill-opacity:1.0000; stroke:none;fill-rule:evenodd;"
d="M 134.5995,129.2750
134.6109,129.2176
134.6434,129.1689
134.6921,129.1364
134.7495,129.1250
136.3995,129.1250
136.4569,129.1364
136.5056,129.1689
136.5381,129.2176
136.5495,129.2750
136.5495,129.5750
136.5381,129.6324
136.5056,129.6811
136.4569,129.7136
136.3995,129.7250
134.7495,129.7250
134.6921,129.7136
134.6434,129.6811
134.6109,129.6324
134.5995,129.5750
Z" /> 
<path style="fill:#000000; fill-opacity:1.0000; stroke:none;fill-rule:evenodd;"
d="M 134.5995,128.0050
134.6109,127.9476
134.6434,127.8989
134.6921,127.8664
134.7495,127.8550
136.3995,127.8550
136.4569,127.8664
136.5056,127.8989
136.5381,127.9476
136.5495,128.0050
136.5495,128.3050
136.5381,128.3624
136.5056,128.4111
136.4569,128.4436
136.3995,128.4550
134.7495,128.4550
134.6921,128.4436
134.6434,128.4111
134.6109,128.3624
134.5995,128.3050
Z" /> 
<path style="fill:#000000; fill-opacity:1.0000; stroke:none;fill-rule:evenodd;"
d="M 134.5995,126.7350
134.6109,126.6776
134.6434,126.6289
134.6921,126.5964
134.7495,126.5850
136.3995,126.5850
136.4569,126.5964
136.5056,126.6289
136.5381,126.6776
136.5495,126.7350
136.5495,127.0350
136.5381,127.0924
136.5056,127.1411
136.4569,127.1736
136.3995,127.1850
134.7495,127.1850
134.6921,127.1736
134.6434,127.1411
134.6109,127.0924
134.5995,127.0350
Z" /> 
</g>
<g style="fill:#000000; fill-opacity:1.0000; stroke:none;">
<circle cx="134.2000" cy="101.4000" r="0.9000" /> 
</g>
<g style="fill:#000000; fill-opacity:1.0000; stroke:none;">
<circle cx="131.7000" cy="101.4000" r="0.9000" /> 
<path style="fill:#000000; fill-opacity:1.0000; stroke:none;fill-rule:evenodd;"
d="M 130.1000,100.5000
130.1000,102.3000
128.3000,102.3000
128.3000,100.5000
Z" /> 
</g>
<g style="fill:none; 
stroke:#000000; stroke-width:2.7200; stroke-opacity:1; 
stroke-linecap:round; stroke-linejoin:round;">
<path d="M136.5000 94.1600
L136.5000 93.6400
" />
<path d="M126.9000 94.1600
L126.9000 93.6400
" />
<path style="fill:#000000; fill-opacity:1.0000; stroke:none;fill-rule:evenodd;"
d="M 128.9990,141.6310
129.0947,141.6500
129.1758,141.7042
129.2300,141.7853
129.2490,141.8810
129.2490,142.5560
129.2300,142.6517
129.1758,142.7328
129.0947,142.7870
128.9990,142.8060
128.0490,142.8060
127.9533,142.7870
127.8722,142.7328
127.8180,142.6517
127.7990,142.5560
127.7990,141.8810
127.8180,141.7853
127.8722,141.7042
127.9533,141.6500
128.0490,141.6310
Z" /> 
<path style="fill:#000000; fill-opacity:1.0000; stroke:none;fill-rule:evenodd;"
d="M 128.9990,143.7060
129.0947,143.7250
129.1758,143.7792
129.2300,143.8603
129.2490,143.9560
129.2490,144.6310
129.2300,144.7267
129.1758,144.8078
129.0947,144.8620
128.9990,144.8810
128.0490,144.8810
127.9533,144.8620
127.8722,144.8078
127.8180,144.7267
127.7990,144.6310
127.7990,143.9560
127.8180,143.8603
127.8722,143.7792
127.9533,143.7250
128.0490,143.7060
Z" /> 
<path style="fill:#000000; fill-opacity:1.0000; stroke:none;fill-rule:evenodd;"
d="M 132.3550,162.5420
132.4315,162.5572
132.4964,162.6006
132.5398,162.6655
132.5550,162.7420
132.5550,163.1420
132.5398,163.2185
132.4964,163.2834
132.4315,163.3268
132.3550,163.3420
131.8050,163.3420
131.7285,163.3268
131.6636,163.2834
131.6202,163.2185
131.6050,163.1420
131.6050,162.7420
131.6202,162.6655
131.6636,162.6006
131.7285,162.5572
131.8050,162.5420
Z" /> 
<path style="fill:#000000; fill-opacity:1.0000; stroke:none;fill-rule:evenodd;"
d="M 132.3550,164.1920
132.4315,164.2072
132.4964,164.2506
132.5398,164.3155
132.5550,164.3920
132.5550,164.7920
132.5398,164.8685
132.4964,164.9334
132.4315,164.9768
132.3550,164.9920
131.8050,164.9920
131.7285,164.9768
131.6636,164.9334
131.6202,164.8685
131.6050,164.7920
131.6050,164.3920
131.6202,164.3155
131.6636,164.2506
131.7285,164.2072
131.8050,164.1920
Z" /> 
</g>
<g style="fill:#000000; fill-opacity:1.0000; stroke:none;">
<circle cx="132.2000" cy="109.3000" r="1.0000" /> 
<circle cx="132.2000" cy="106.8000" r="1.0000" /> 
<circle cx="132.2000" cy="104.3000" r="1.0000" /> 
<path style="fill:#000000; fill-opacity:1.0000; stroke:none;fill-rule:evenodd;"
d="M 136.2750,103.2125
136.3707,103.2315
136.4518,103.2857
136.5060,103.3668
136.5250,103.4625
136.5250,104.1375
136.5060,104.2332
136.4518,104.3143
136.3707,104.3685
136.2750,104.3875
135.3250,104.3875
135.2293,104.3685
135.1482,104.3143
135.0940,104.2332
135.0750,104.1375
135.0750,103.4625
135.0940,103.3668
135.1482,103.2857
135.2293,103.2315
135.3250,103.2125
Z" /> 
<path style="fill:#000000; fill-opacity:1.0000; stroke:none;fill-rule:evenodd;"
d="M 136.2750,105.2875
136.3707,105.3065
136.4518,105.3607
136.5060,105.4418
136.5250,105.5375
136.5250,106.2125
136.5060,106.3082
136.4518,106.3893
136.3707,106.4435
136.2750,106.4625
135.3250,106.4625
135.2293,106.4435
135.1482,106.3893
135.0940,106.3082
135.0750,106.2125
135.0750,105.5375
135.0940,105.4418
135.1482,105.3607
135.2293,105.3065
135.3250,105.2875
Z" /> 
<path style="fill:#000000; fill-opacity:1.0000; stroke:none;fill-rule:evenodd;"
d="M 132.3550,63.7990
132.4315,63.8142
132.4964,63.8576
132.5398,63.9225
132.5550,63.9990
132.5550,64.3990
132.5398,64.4755
132.4964,64.5404
132.4315,64.5838
132.3550,64.5990
131.8050,64.5990
131.7285,64.5838
131.6636,64.5404
131.6202,64.4755
131.6050,64.3990
131.6050,63.9990
131.6202,63.9225
131.6636,63.8576
131.7285,63.8142
131.8050,63.7990
Z" /> 
<path style="fill:#000000; fill-opacity:1.0000; stroke:none;fill-rule:evenodd;"
d="M 132.3550,65.4490
132.4315,65.4642
132.4964,65.5076
132.5398,65.5725
132.5550,65.6490
132.5550,66.0490
132.5398,66.1255
132.4964,66.1904
132.4315,66.2338
132.3550,66.2490
131.8050,66.2490
131.7285,66.2338
131.6636,66.1904
131.6202,66.1255
131.6050,66.0490
131.6050,65.6490
131.6202,65.5725
131.6636,65.5076
131.7285,65.4642
131.8050,65.4490
Z" /> 
<path style="fill:#000000; fill-opacity:1.0000; stroke:none;fill-rule:evenodd;"
d="M 136.4250,125.4750
136.4060,125.5707
136.3518,125.6518
136.2707,125.7060
136.1750,125.7250
135.5000,125.7250
135.4043,125.7060
135.3232,125.6518
135.2690,125.5707
135.2500,125.4750
135.2500,124.5250
135.2690,124.4293
135.3232,124.3482
135.4043,124.2940
135.5000,124.2750
136.1750,124.2750
136.2707,124.2940
136.3518,124.3482
136.4060,124.4293
136.4250,124.5250
Z" /> 
<path style="fill:#000000; fill-opacity:1.0000; stroke:none;fill-rule:evenodd;"
d="M 134.3500,125.4750
134.3310,125.5707
134.2768,125.6518
134.1957,125.7060
134.1000,125.7250
133.4250,125.7250
133.3293,125.7060
133.2482,125.6518
133.1940,125.5707
133.1750,125.4750
133.1750,124.5250
133.1940,124.4293
133.2482,124.3482
133.3293,124.2940
133.4250,124.2750
134.1000,124.2750
134.1957,124.2940
134.2768,124.3482
134.3310,124.4293
134.3500,124.5250
Z" /> 
<path style="fill:#000000; fill-opacity:1.0000; stroke:none;fill-rule:evenodd;"
d="M 130.8500,133.0750
130.8310,133.1707
130.7768,133.2518
130.6957,133.3060
130.6000,133.3250
129.9250,133.3250
129.8293,133.3060
129.7482,133.2518
129.6940,133.1707
129.6750,133.0750
129.6750,132.1250
129.6940,132.0293
129.7482,131.9482
129.8293,131.8940
129.9250,131.8750
130.6000,131.8750
130.6957,131.8940
130.7768,131.9482
130.8310,132.0293
130.8500,132.1250
Z" /> 
<path style="fill:#000000; fill-opacity:1.0000; stroke:none;fill-rule:evenodd;"
d="M 132.9250,133.0750
132.9060,133.1707
132.8518,133.2518
132.7707,133.3060
132.6750,133.3250
132.0000,133.3250
131.9043,133.3060
131.8232,133.2518
131.7690,133.1707
131.7500,133.0750
131.7500,132.1250
131.7690,132.0293
131.8232,131.9482
131.9043,131.8940
132.0000,131.8750
132.6750,131.8750
132.7707,131.8940
132.8518,131.9482
132.9060,132.0293
132.9250,132.1250
Z" /> 
</g>
<g style="fill:none; 
stroke:#000000; stroke-width:2.7200; stroke-opacity:1; 
stroke-linecap:round; stroke-linejoin:round;">
<path d="M126.9000 79.6850
L126.9000 79.1650
" />
<path d="M136.5000 79.6850
L136.5000 79.1650
" />
<path style="fill:#000000; fill-opacity:1.0000; stroke:none;fill-rule:evenodd;"
d="M 130.1000,86.0250
130.1000,87.8250
128.3000,87.8250
128.3000,86.0250
Z" /> 
</g>
<g style="fill:#000000; fill-opacity:1.0000; stroke:none;">
<circle cx="131.7000" cy="86.9250" r="0.9000" /> 
</g>
<g style="fill:#000000; fill-opacity:1.0000; stroke:none;">
<circle cx="134.2000" cy="86.9250" r="0.9000" /> 
<path style="fill:#000000; fill-opacity:1.0000; stroke:none;fill-rule:evenodd;"
d="M 134.0051,122.2000
134.0051,123.8000
132.4051,123.8000
132.4051,122.2000
Z" /> 
</g>
<g style="fill:#000000; fill-opacity:1.0000; stroke:none;">
<circle cx="130.7051" cy="123.0000" r="0.8000" /> 
<path style="fill:#000000; fill-opacity:1.0000; stroke:none;fill-rule:evenodd;"
d="M 129.9100,144.5000
129.9290,144.4043
129.9832,144.3232
130.0643,144.2690
130.1600,144.2500
131.3600,144.2500
131.4557,144.2690
131.5368,144.3232
131.5910,144.4043
131.6100,144.5000
131.6100,145.7000
131.5910,145.7957
131.5368,145.8768
131.4557,145.9310
131.3600,145.9500
130.1600,145.9500
130.0643,145.9310
129.9832,145.8768
129.9290,145.7957
129.9100,145.7000
Z" /> 
</g>
<g style="fill:#000000; fill-opacity:1.0000; stroke:none;">
<circle cx="133.3000" cy="145.1000" r="0.8500" /> 
</g>
<g style="fill:#000000; fill-opacity:1.0000; stroke:none;">
<circle cx="130.7600" cy="142.5600" r="0.8500" /> 
</g>
<g style="fill:#000000; fill-opacity:1.0000; stroke:none;">
<circle cx="133.3000" cy="142.5600" r="0.8500" /> 
</g>
<g style="fill:#000000; fill-opacity:1.0000; stroke:none;">
<circle cx="130.7600" cy="140.0200" r="0.8500" /> 
</g>
<g style="fill:#000000; fill-opacity:1.0000; stroke:none;">
<circle cx="133.3000" cy="140.0200" r="0.8500" /> 
</g>
<g style="fill:#000000; fill-opacity:1.0000; stroke:none;">
<circle cx="130.7600" cy="137.4800" r="0.8500" /> 
</g>
<g style="fill:#000000; fill-opacity:1.0000; stroke:none;">
<circle cx="133.3000" cy="137.4800" r="0.8500" /> 
</g>
<g style="fill:#000000; fill-opacity:1.0000; stroke:none;">
<circle cx="130.7600" cy="134.9400" r="0.8500" /> 
</g>
<g style="fill:#000000; fill-opacity:1.0000; stroke:none;">
<circle cx="133.3000" cy="134.9400" r="0.8500" /> 
<path style="fill:#000000; fill-opacity:1.0000; stroke:none;fill-rule:evenodd;"
d="M 129.9949,115.1000
129.9949,113.5000
131.5949,113.5000
131.5949,115.1000
Z" /> 
</g>
<g style="fill:#000000; fill-opacity:1.0000; stroke:none;">
<circle cx="133.2949" cy="114.3000" r="0.8000" /> 
</g>
<g style="fill:#000000; fill-opacity:1.0000; stroke:none;">
<circle cx="112.0000" cy="152.8000" r="1.6000" /> 
</g>
<g style="fill:#000000; fill-opacity:1.0000; stroke:none;">
<circle cx="112.0000" cy="106.8000" r="3.1000" /> 
</g> 
</svg>
