<?xml version="1.0" standalone="no"?>
 <!DOCTYPE svg PUBLIC "-//W3C//DTD SVG 1.1//EN" 
 "http://www.w3.org/Graphics/SVG/1.1/DTD/svg11.dtd"> 
<svg
  xmlns:svg="http://www.w3.org/2000/svg"
  xmlns="http://www.w3.org/2000/svg"
  xmlns:xlink="http://www.w3.org/1999/xlink"
  version="1.1"
  width="297.0022mm" height="210.0072mm" viewBox="0.0000 0.0000 297.0022 210.0072">
<title>SVG Image created as MiniSlew-Edge_Cuts.svg date 2024/09/09 04:28:58 </title>
  <desc>Image generated by PCBNEW </desc>
<g style="fill:#000000; fill-opacity:1.0000;stroke:#000000; stroke-opacity:1.0000;
stroke-linecap:round; stroke-linejoin:round;"
 transform="translate(0 0) scale(1 1)">
<path style="fill:none; 
stroke:#000000; stroke-width:0.1000; stroke-opacity:1; 
stroke-linecap:round; stroke-linejoin:round;fill:none"
d="M 127.0000,59.8000
137.0000,59.8000
137.0000,170.3000
127.0000,170.3000
Z" /> 
</g>
<g style="fill:none; 
stroke:#000000; stroke-width:0.1500; stroke-opacity:1; 
stroke-linecap:round; stroke-linejoin:round;">
<g transform="rotate(-90.000000 75.8500 174.8240)">
<text x="75.8500" y="175.3240"
textLength="8.9167" font-size="1.3333" lengthAdjust="spacingAndGlyphs"
text-anchor="middle" opacity="0" stroke-opacity="0">9.0000 mm</text>
</g>
<g class="stroked-text"><desc>9.0000 mm</desc>
<path d="M76.3048 178.8716
L76.3048 178.6811
" />
<path d="M76.3048 178.6811
L76.2572 178.5859
" />
<path d="M76.2572 178.5859
L76.2096 178.5383
" />
<path d="M76.2096 178.5383
L76.0667 178.4430
" />
<path d="M76.0667 178.4430
L75.8762 178.3954
" />
<path d="M75.8762 178.3954
L75.4953 178.3954
" />
<path d="M75.4953 178.3954
L75.4001 178.4430
" />
<path d="M75.4001 178.4430
L75.3524 178.4907
" />
<path d="M75.3524 178.4907
L75.3048 178.5859
" />
<path d="M75.3048 178.5859
L75.3048 178.7764
" />
<path d="M75.3048 178.7764
L75.3524 178.8716
" />
<path d="M75.3524 178.8716
L75.4001 178.9192
" />
<path d="M75.4001 178.9192
L75.4953 178.9669
" />
<path d="M75.4953 178.9669
L75.7334 178.9669
" />
<path d="M75.7334 178.9669
L75.8286 178.9192
" />
<path d="M75.8286 178.9192
L75.8762 178.8716
" />
<path d="M75.8762 178.8716
L75.9239 178.7764
" />
<path d="M75.9239 178.7764
L75.9239 178.5859
" />
<path d="M75.9239 178.5859
L75.8762 178.4907
" />
<path d="M75.8762 178.4907
L75.8286 178.4430
" />
<path d="M75.8286 178.4430
L75.7334 178.3954
" />
<path d="M76.2096 177.9669
L76.2572 177.9192
" />
<path d="M76.2572 177.9192
L76.3048 177.9669
" />
<path d="M76.3048 177.9669
L76.2572 178.0145
" />
<path d="M76.2572 178.0145
L76.2096 177.9669
" />
<path d="M76.2096 177.9669
L76.3048 177.9669
" />
<path d="M75.3048 177.3002
L75.3048 177.2050
" />
<path d="M75.3048 177.2050
L75.3524 177.1097
" />
<path d="M75.3524 177.1097
L75.4001 177.0621
" />
<path d="M75.4001 177.0621
L75.4953 177.0145
" />
<path d="M75.4953 177.0145
L75.6858 176.9669
" />
<path d="M75.6858 176.9669
L75.9239 176.9669
" />
<path d="M75.9239 176.9669
L76.1143 177.0145
" />
<path d="M76.1143 177.0145
L76.2096 177.0621
" />
<path d="M76.2096 177.0621
L76.2572 177.1097
" />
<path d="M76.2572 177.1097
L76.3048 177.2050
" />
<path d="M76.3048 177.2050
L76.3048 177.3002
" />
<path d="M76.3048 177.3002
L76.2572 177.3954
" />
<path d="M76.2572 177.3954
L76.2096 177.4430
" />
<path d="M76.2096 177.4430
L76.1143 177.4907
" />
<path d="M76.1143 177.4907
L75.9239 177.5383
" />
<path d="M75.9239 177.5383
L75.6858 177.5383
" />
<path d="M75.6858 177.5383
L75.4953 177.4907
" />
<path d="M75.4953 177.4907
L75.4001 177.4430
" />
<path d="M75.4001 177.4430
L75.3524 177.3954
" />
<path d="M75.3524 177.3954
L75.3048 177.3002
" />
<path d="M75.3048 176.3478
L75.3048 176.2526
" />
<path d="M75.3048 176.2526
L75.3524 176.1573
" />
<path d="M75.3524 176.1573
L75.4001 176.1097
" />
<path d="M75.4001 176.1097
L75.4953 176.0621
" />
<path d="M75.4953 176.0621
L75.6858 176.0145
" />
<path d="M75.6858 176.0145
L75.9239 176.0145
" />
<path d="M75.9239 176.0145
L76.1143 176.0621
" />
<path d="M76.1143 176.0621
L76.2096 176.1097
" />
<path d="M76.2096 176.1097
L76.2572 176.1573
" />
<path d="M76.2572 176.1573
L76.3048 176.2526
" />
<path d="M76.3048 176.2526
L76.3048 176.3478
" />
<path d="M76.3048 176.3478
L76.2572 176.4430
" />
<path d="M76.2572 176.4430
L76.2096 176.4907
" />
<path d="M76.2096 176.4907
L76.1143 176.5383
" />
<path d="M76.1143 176.5383
L75.9239 176.5859
" />
<path d="M75.9239 176.5859
L75.6858 176.5859
" />
<path d="M75.6858 176.5859
L75.4953 176.5383
" />
<path d="M75.4953 176.5383
L75.4001 176.4907
" />
<path d="M75.4001 176.4907
L75.3524 176.4430
" />
<path d="M75.3524 176.4430
L75.3048 176.3478
" />
<path d="M75.3048 175.3954
L75.3048 175.3002
" />
<path d="M75.3048 175.3002
L75.3524 175.2050
" />
<path d="M75.3524 175.2050
L75.4001 175.1573
" />
<path d="M75.4001 175.1573
L75.4953 175.1097
" />
<path d="M75.4953 175.1097
L75.6858 175.0621
" />
<path d="M75.6858 175.0621
L75.9239 175.0621
" />
<path d="M75.9239 175.0621
L76.1143 175.1097
" />
<path d="M76.1143 175.1097
L76.2096 175.1573
" />
<path d="M76.2096 175.1573
L76.2572 175.2050
" />
<path d="M76.2572 175.2050
L76.3048 175.3002
" />
<path d="M76.3048 175.3002
L76.3048 175.3954
" />
<path d="M76.3048 175.3954
L76.2572 175.4907
" />
<path d="M76.2572 175.4907
L76.2096 175.5383
" />
<path d="M76.2096 175.5383
L76.1143 175.5859
" />
<path d="M76.1143 175.5859
L75.9239 175.6335
" />
<path d="M75.9239 175.6335
L75.6858 175.6335
" />
<path d="M75.6858 175.6335
L75.4953 175.5859
" />
<path d="M75.4953 175.5859
L75.4001 175.5383
" />
<path d="M75.4001 175.5383
L75.3524 175.4907
" />
<path d="M75.3524 175.4907
L75.3048 175.3954
" />
<path d="M75.3048 174.4430
L75.3048 174.3478
" />
<path d="M75.3048 174.3478
L75.3524 174.2526
" />
<path d="M75.3524 174.2526
L75.4001 174.2050
" />
<path d="M75.4001 174.2050
L75.4953 174.1573
" />
<path d="M75.4953 174.1573
L75.6858 174.1097
" />
<path d="M75.6858 174.1097
L75.9239 174.1097
" />
<path d="M75.9239 174.1097
L76.1143 174.1573
" />
<path d="M76.1143 174.1573
L76.2096 174.2050
" />
<path d="M76.2096 174.2050
L76.2572 174.2526
" />
<path d="M76.2572 174.2526
L76.3048 174.3478
" />
<path d="M76.3048 174.3478
L76.3048 174.4430
" />
<path d="M76.3048 174.4430
L76.2572 174.5383
" />
<path d="M76.2572 174.5383
L76.2096 174.5859
" />
<path d="M76.2096 174.5859
L76.1143 174.6335
" />
<path d="M76.1143 174.6335
L75.9239 174.6811
" />
<path d="M75.9239 174.6811
L75.6858 174.6811
" />
<path d="M75.6858 174.6811
L75.4953 174.6335
" />
<path d="M75.4953 174.6335
L75.4001 174.5859
" />
<path d="M75.4001 174.5859
L75.3524 174.5383
" />
<path d="M75.3524 174.5383
L75.3048 174.4430
" />
<path d="M76.3048 172.9192
L75.6382 172.9192
" />
<path d="M75.7334 172.9192
L75.6858 172.8716
" />
<path d="M75.6858 172.8716
L75.6382 172.7764
" />
<path d="M75.6382 172.7764
L75.6382 172.6335
" />
<path d="M75.6382 172.6335
L75.6858 172.5383
" />
<path d="M75.6858 172.5383
L75.7810 172.4907
" />
<path d="M75.7810 172.4907
L76.3048 172.4907
" />
<path d="M75.7810 172.4907
L75.6858 172.4430
" />
<path d="M75.6858 172.4430
L75.6382 172.3478
" />
<path d="M75.6382 172.3478
L75.6382 172.2050
" />
<path d="M75.6382 172.2050
L75.6858 172.1097
" />
<path d="M75.6858 172.1097
L75.7810 172.0621
" />
<path d="M75.7810 172.0621
L76.3048 172.0621
" />
<path d="M76.3048 171.5859
L75.6382 171.5859
" />
<path d="M75.7334 171.5859
L75.6858 171.5383
" />
<path d="M75.6858 171.5383
L75.6382 171.4430
" />
<path d="M75.6382 171.4430
L75.6382 171.3002
" />
<path d="M75.6382 171.3002
L75.6858 171.2050
" />
<path d="M75.6858 171.2050
L75.7810 171.1573
" />
<path d="M75.7810 171.1573
L76.3048 171.1573
" />
<path d="M75.7810 171.1573
L75.6858 171.1097
" />
<path d="M75.6858 171.1097
L75.6382 171.0145
" />
<path d="M75.6382 171.0145
L75.6382 170.8716
" />
<path d="M75.6382 170.8716
L75.6858 170.7764
" />
<path d="M75.6858 170.7764
L75.7810 170.7288
" />
<path d="M75.7810 170.7288
L76.3048 170.7288
" />
</g></g>
<g style="fill:none; 
stroke:#000000; stroke-width:0.1000; stroke-opacity:1; 
stroke-linecap:round; stroke-linejoin:round;">
<path d="M137.5000 179.3240
L76.4136 179.3240
" />
<path d="M137.5000 170.3240
L76.4136 170.3240
" />
<path d="M77.0000 179.3240
L77.0000 170.3240
" />
<path d="M77.0000 179.3240
L77.0000 170.3240
" />
<path d="M77.0000 179.3240
L76.4136 178.1975
" />
<path d="M77.0000 179.3240
L77.5864 178.1975
" />
<path d="M77.0000 170.3240
L77.5864 171.4505
" />
<path d="M77.0000 170.3240
L76.4136 171.4505
" />
</g>
<g style="fill:none; 
stroke:#000000; stroke-width:0.1500; stroke-opacity:1; 
stroke-linecap:round; stroke-linejoin:round;">
<g transform="rotate(-90.000000 95.8500 55.2760)">
<text x="95.8500" y="55.7760"
textLength="8.9167" font-size="1.3333" lengthAdjust="spacingAndGlyphs"
text-anchor="middle" opacity="0" stroke-opacity="0">9.0000 mm</text>
</g>
<g class="stroked-text"><desc>9.0000 mm</desc>
<path d="M96.3048 59.3236
L96.3048 59.1331
" />
<path d="M96.3048 59.1331
L96.2572 59.0379
" />
<path d="M96.2572 59.0379
L96.2096 58.9903
" />
<path d="M96.2096 58.9903
L96.0667 58.8950
" />
<path d="M96.0667 58.8950
L95.8762 58.8474
" />
<path d="M95.8762 58.8474
L95.4953 58.8474
" />
<path d="M95.4953 58.8474
L95.4001 58.8950
" />
<path d="M95.4001 58.8950
L95.3524 58.9427
" />
<path d="M95.3524 58.9427
L95.3048 59.0379
" />
<path d="M95.3048 59.0379
L95.3048 59.2284
" />
<path d="M95.3048 59.2284
L95.3524 59.3236
" />
<path d="M95.3524 59.3236
L95.4001 59.3712
" />
<path d="M95.4001 59.3712
L95.4953 59.4189
" />
<path d="M95.4953 59.4189
L95.7334 59.4189
" />
<path d="M95.7334 59.4189
L95.8286 59.3712
" />
<path d="M95.8286 59.3712
L95.8762 59.3236
" />
<path d="M95.8762 59.3236
L95.9239 59.2284
" />
<path d="M95.9239 59.2284
L95.9239 59.0379
" />
<path d="M95.9239 59.0379
L95.8762 58.9427
" />
<path d="M95.8762 58.9427
L95.8286 58.8950
" />
<path d="M95.8286 58.8950
L95.7334 58.8474
" />
<path d="M96.2096 58.4189
L96.2572 58.3712
" />
<path d="M96.2572 58.3712
L96.3048 58.4189
" />
<path d="M96.3048 58.4189
L96.2572 58.4665
" />
<path d="M96.2572 58.4665
L96.2096 58.4189
" />
<path d="M96.2096 58.4189
L96.3048 58.4189
" />
<path d="M95.3048 57.7522
L95.3048 57.6570
" />
<path d="M95.3048 57.6570
L95.3524 57.5617
" />
<path d="M95.3524 57.5617
L95.4001 57.5141
" />
<path d="M95.4001 57.5141
L95.4953 57.4665
" />
<path d="M95.4953 57.4665
L95.6858 57.4189
" />
<path d="M95.6858 57.4189
L95.9239 57.4189
" />
<path d="M95.9239 57.4189
L96.1143 57.4665
" />
<path d="M96.1143 57.4665
L96.2096 57.5141
" />
<path d="M96.2096 57.5141
L96.2572 57.5617
" />
<path d="M96.2572 57.5617
L96.3048 57.6570
" />
<path d="M96.3048 57.6570
L96.3048 57.7522
" />
<path d="M96.3048 57.7522
L96.2572 57.8474
" />
<path d="M96.2572 57.8474
L96.2096 57.8950
" />
<path d="M96.2096 57.8950
L96.1143 57.9427
" />
<path d="M96.1143 57.9427
L95.9239 57.9903
" />
<path d="M95.9239 57.9903
L95.6858 57.9903
" />
<path d="M95.6858 57.9903
L95.4953 57.9427
" />
<path d="M95.4953 57.9427
L95.4001 57.8950
" />
<path d="M95.4001 57.8950
L95.3524 57.8474
" />
<path d="M95.3524 57.8474
L95.3048 57.7522
" />
<path d="M95.3048 56.7998
L95.3048 56.7046
" />
<path d="M95.3048 56.7046
L95.3524 56.6093
" />
<path d="M95.3524 56.6093
L95.4001 56.5617
" />
<path d="M95.4001 56.5617
L95.4953 56.5141
" />
<path d="M95.4953 56.5141
L95.6858 56.4665
" />
<path d="M95.6858 56.4665
L95.9239 56.4665
" />
<path d="M95.9239 56.4665
L96.1143 56.5141
" />
<path d="M96.1143 56.5141
L96.2096 56.5617
" />
<path d="M96.2096 56.5617
L96.2572 56.6093
" />
<path d="M96.2572 56.6093
L96.3048 56.7046
" />
<path d="M96.3048 56.7046
L96.3048 56.7998
" />
<path d="M96.3048 56.7998
L96.2572 56.8950
" />
<path d="M96.2572 56.8950
L96.2096 56.9427
" />
<path d="M96.2096 56.9427
L96.1143 56.9903
" />
<path d="M96.1143 56.9903
L95.9239 57.0379
" />
<path d="M95.9239 57.0379
L95.6858 57.0379
" />
<path d="M95.6858 57.0379
L95.4953 56.9903
" />
<path d="M95.4953 56.9903
L95.4001 56.9427
" />
<path d="M95.4001 56.9427
L95.3524 56.8950
" />
<path d="M95.3524 56.8950
L95.3048 56.7998
" />
<path d="M95.3048 55.8474
L95.3048 55.7522
" />
<path d="M95.3048 55.7522
L95.3524 55.6570
" />
<path d="M95.3524 55.6570
L95.4001 55.6093
" />
<path d="M95.4001 55.6093
L95.4953 55.5617
" />
<path d="M95.4953 55.5617
L95.6858 55.5141
" />
<path d="M95.6858 55.5141
L95.9239 55.5141
" />
<path d="M95.9239 55.5141
L96.1143 55.5617
" />
<path d="M96.1143 55.5617
L96.2096 55.6093
" />
<path d="M96.2096 55.6093
L96.2572 55.6570
" />
<path d="M96.2572 55.6570
L96.3048 55.7522
" />
<path d="M96.3048 55.7522
L96.3048 55.8474
" />
<path d="M96.3048 55.8474
L96.2572 55.9427
" />
<path d="M96.2572 55.9427
L96.2096 55.9903
" />
<path d="M96.2096 55.9903
L96.1143 56.0379
" />
<path d="M96.1143 56.0379
L95.9239 56.0855
" />
<path d="M95.9239 56.0855
L95.6858 56.0855
" />
<path d="M95.6858 56.0855
L95.4953 56.0379
" />
<path d="M95.4953 56.0379
L95.4001 55.9903
" />
<path d="M95.4001 55.9903
L95.3524 55.9427
" />
<path d="M95.3524 55.9427
L95.3048 55.8474
" />
<path d="M95.3048 54.8950
L95.3048 54.7998
" />
<path d="M95.3048 54.7998
L95.3524 54.7046
" />
<path d="M95.3524 54.7046
L95.4001 54.6570
" />
<path d="M95.4001 54.6570
L95.4953 54.6093
" />
<path d="M95.4953 54.6093
L95.6858 54.5617
" />
<path d="M95.6858 54.5617
L95.9239 54.5617
" />
<path d="M95.9239 54.5617
L96.1143 54.6093
" />
<path d="M96.1143 54.6093
L96.2096 54.6570
" />
<path d="M96.2096 54.6570
L96.2572 54.7046
" />
<path d="M96.2572 54.7046
L96.3048 54.7998
" />
<path d="M96.3048 54.7998
L96.3048 54.8950
" />
<path d="M96.3048 54.8950
L96.2572 54.9903
" />
<path d="M96.2572 54.9903
L96.2096 55.0379
" />
<path d="M96.2096 55.0379
L96.1143 55.0855
" />
<path d="M96.1143 55.0855
L95.9239 55.1331
" />
<path d="M95.9239 55.1331
L95.6858 55.1331
" />
<path d="M95.6858 55.1331
L95.4953 55.0855
" />
<path d="M95.4953 55.0855
L95.4001 55.0379
" />
<path d="M95.4001 55.0379
L95.3524 54.9903
" />
<path d="M95.3524 54.9903
L95.3048 54.8950
" />
<path d="M96.3048 53.3712
L95.6382 53.3712
" />
<path d="M95.7334 53.3712
L95.6858 53.3236
" />
<path d="M95.6858 53.3236
L95.6382 53.2284
" />
<path d="M95.6382 53.2284
L95.6382 53.0855
" />
<path d="M95.6382 53.0855
L95.6858 52.9903
" />
<path d="M95.6858 52.9903
L95.7810 52.9427
" />
<path d="M95.7810 52.9427
L96.3048 52.9427
" />
<path d="M95.7810 52.9427
L95.6858 52.8950
" />
<path d="M95.6858 52.8950
L95.6382 52.7998
" />
<path d="M95.6382 52.7998
L95.6382 52.6570
" />
<path d="M95.6382 52.6570
L95.6858 52.5617
" />
<path d="M95.6858 52.5617
L95.7810 52.5141
" />
<path d="M95.7810 52.5141
L96.3048 52.5141
" />
<path d="M96.3048 52.0379
L95.6382 52.0379
" />
<path d="M95.7334 52.0379
L95.6858 51.9903
" />
<path d="M95.6858 51.9903
L95.6382 51.8950
" />
<path d="M95.6382 51.8950
L95.6382 51.7522
" />
<path d="M95.6382 51.7522
L95.6858 51.6570
" />
<path d="M95.6858 51.6570
L95.7810 51.6093
" />
<path d="M95.7810 51.6093
L96.3048 51.6093
" />
<path d="M95.7810 51.6093
L95.6858 51.5617
" />
<path d="M95.6858 51.5617
L95.6382 51.4665
" />
<path d="M95.6382 51.4665
L95.6382 51.3236
" />
<path d="M95.6382 51.3236
L95.6858 51.2284
" />
<path d="M95.6858 51.2284
L95.7810 51.1808
" />
<path d="M95.7810 51.1808
L96.3048 51.1808
" />
</g></g>
<g style="fill:none; 
stroke:#000000; stroke-width:0.1000; stroke-opacity:1; 
stroke-linecap:round; stroke-linejoin:round;">
<path d="M137.5000 50.7760
L96.4136 50.7760
" />
<path d="M137.5000 59.7760
L96.4136 59.7760
" />
<path d="M97.0000 50.7760
L97.0000 59.7760
" />
<path d="M97.0000 50.7760
L97.0000 59.7760
" />
<path d="M97.0000 50.7760
L97.5864 51.9025
" />
<path d="M97.0000 50.7760
L96.4136 51.9025
" />
<path d="M97.0000 59.7760
L96.4136 58.6495
" />
<path d="M97.0000 59.7760
L97.5864 58.6495
" />
<path style="fill:none; 
stroke:#000000; stroke-width:0.1000; stroke-opacity:1; 
stroke-linecap:round; stroke-linejoin:round;fill:none"
d="M 107.0000,50.8000
116.9060,50.8000
116.9060,179.3240
107.0000,179.3240
Z" /> 
</g> 
</svg>
